<?xml version="1.0" encoding="UTF-8" standalone="no"?>
<svg
   xmlns:dc="http://purl.org/dc/elements/1.1/"
   xmlns:cc="http://creativecommons.org/ns#"
   xmlns:rdf="http://www.w3.org/1999/02/22-rdf-syntax-ns#"
   xmlns:svg="http://www.w3.org/2000/svg"
   xmlns="http://www.w3.org/2000/svg"
   version="1.1"
   id="svg3703"
   viewBox="0 0 39.924135 44.999999"
   height="12.7mm"
   width="11.267478mm">
  <defs
     id="defs3705" />
  <metadata
     id="metadata3708">
    <rdf:RDF>
      <cc:Work
         rdf:about="">
        <dc:format>image/svg+xml</dc:format>
        <dc:type
           rdf:resource="http://purl.org/dc/dcmitype/StillImage" />
        <dc:title></dc:title>
      </cc:Work>
    </rdf:RDF>
  </metadata>
  <g
     transform="translate(-355.03793,-509.8622)"
     id="layer1">
    <g
       transform="translate(273.60936,102.85713)"
       id="g3509">
      <path
         id="path3513"
         d="m 81.428574,434.50507 0,-17.5 16,0 15.999996,0 0.0216,3.25 c 0.0178,2.67553 0.59192,3.51514 3.24791,4.75 6.20617,2.88546 6.20617,11.11453 0,14 -3.0824,1.43311 -3.22723,1.7564 -3.24791,7.25 l -0.0216,5.75 -15.999996,0 -16,0 0,-17.5 z m 29.999996,0 0,-15.5 -13.999996,0 -14,0 0,15.5 0,15.5 14,0 13.999996,0 0,-15.5 z m 6,1.5 c 1.1,-1.1 2,-2.9 2,-4 0,-2.08345 -3.26379,-6 -5,-6 -0.55555,0 -1,2.66667 -1,6 0,6.40241 0.7988,7.20121 4,4 z m -28.999996,-24 c 0,-1.1 0.45,-2 1,-2 0.55,0 1,0.9 1,2 0,1.1 -0.45,2 -1,2 -0.55,0 -1,-0.9 -1,-2 z m 8,-1.5 c 0,-1.925 0.45,-3.5 1,-3.5 0.55,0 1,1.575 1,3.5 0,1.925 -0.45,3.5 -1,3.5 -0.55,0 -1,-1.575 -1,-3.5 z m 7.999996,1.5 c 0,-1.1 0.45,-2 1,-2 0.55,0 1,0.9 1,2 0,1.1 -0.45,2 -1,2 -0.55,0 -1,-0.9 -1,-2 z"
         style="fill-opacity:1" />
      <path
         id="path3511"
         d="m 81.428574,434.50507 0,-17.5 16,0 15.999996,0 0.006,3.25 c 0.005,2.56028 0.64172,3.61156 3.00034,4.95368 6.23359,3.5471 6.23359,10.04554 0,13.59264 -2.77918,1.58144 -2.99444,2.11623 -3.00031,7.45368 l -0.006,5.75 -15.999996,0 -16,0 0,-17.5 z m 29.999996,0 0,-15.5 -13.999996,0 -14,0 0,15.5 0,15.5 14,0 13.999996,0 0,-15.5 z m 6.17126,1.84501 c 2.27702,-2.06067 2.35945,-6.1011 0.17376,-8.51627 -3.12806,-3.45646 -4.34502,-2.28817 -4.34502,4.17126 0,6.37596 0.8959,7.30918 4.17126,4.34501 z M 88.428574,412.00507 c 0,-1.1 0.45,-2 1,-2 0.55,0 1,0.9 1,2 0,1.1 -0.45,2 -1,2 -0.55,0 -1,-0.9 -1,-2 z m 8,-1.5 c 0,-1.925 0.45,-3.5 1,-3.5 0.55,0 1,1.575 1,3.5 0,1.925 -0.45,3.5 -1,3.5 -0.55,0 -1,-1.575 -1,-3.5 z m 7.999996,1.5 c 0,-1.1 0.45,-2 1,-2 0.55,0 1,0.9 1,2 0,1.1 -0.45,2 -1,2 -0.55,0 -1,-0.9 -1,-2 z"
         style="fill-opacity:1" />
    </g>
  </g>
</svg>
