<?xml version="1.0" encoding="UTF-8" standalone="no"?>
<!-- Created with Inkscape (http://www.inkscape.org/) -->

<svg
   xmlns:dc="http://purl.org/dc/elements/1.1/"
   xmlns:cc="http://creativecommons.org/ns#"
   xmlns:rdf="http://www.w3.org/1999/02/22-rdf-syntax-ns#"
   xmlns:svg="http://www.w3.org/2000/svg"
   xmlns="http://www.w3.org/2000/svg"
   xmlns:sodipodi="http://sodipodi.sourceforge.net/DTD/sodipodi-0.dtd"
   xmlns:inkscape="http://www.inkscape.org/namespaces/inkscape"
   width="80.512939"
   height="80.723038"
   viewBox="0 0 80.512935 80.723039"
   id="svg3593"
   version="1.1"
   inkscape:version="0.91 r13725"
   sodipodi:docname="compass.svg">
  <defs
     id="defs3595" />
  <sodipodi:namedview
     id="base"
     pagecolor="#ffffff"
     bordercolor="#666666"
     borderopacity="1.0"
     inkscape:pageopacity="0.0"
     inkscape:pageshadow="2"
     inkscape:zoom="0.35"
     inkscape:cx="312.39933"
     inkscape:cy="-373.9242"
     inkscape:document-units="px"
     inkscape:current-layer="layer1"
     showgrid="false"
     fit-margin-top="0"
     fit-margin-left="0"
     fit-margin-right="0"
     fit-margin-bottom="0"
     units="px"
     inkscape:window-width="1280"
     inkscape:window-height="962"
     inkscape:window-x="-8"
     inkscape:window-y="-8"
     inkscape:window-maximized="1" />
  <metadata
     id="metadata3598">
    <rdf:RDF>
      <cc:Work
         rdf:about="">
        <dc:format>image/svg+xml</dc:format>
        <dc:type
           rdf:resource="http://purl.org/dc/dcmitype/StillImage" />
        <dc:title></dc:title>
      </cc:Work>
    </rdf:RDF>
  </metadata>
  <g
     inkscape:label="Layer 1"
     inkscape:groupmode="layer"
     id="layer1"
     transform="translate(-62.600674,-77.71497)">
    <g
       id="g3497"
       transform="translate(-277.33241,-168.55648)">
      <path
         style="fill-opacity:1"
         d="m 371.50337,326.40988 c -1.37314,-0.25613 -5.29821,-1.73599 -8.72238,-3.28858 -8.164,-3.70173 -15.48991,-11.08179 -19.58786,-19.73262 C 340.26455,297.20639 340,295.81944 340,286.64793 c 0,-9.17151 0.26455,-10.55846 3.19313,-16.74075 12.15916,-25.66816 45.47041,-31.69095 65.34647,-11.81488 22.15826,22.15825 11.91493,59.56116 -18.5396,67.69628 -4.83801,1.29234 -13.36373,1.57872 -18.49663,0.6213 z M 378.5,322.64793 c 0,-0.825 0.675,-1.5 1.5,-1.5 0.825,0 1.5,0.66375 1.5,1.475 0,1.11367 0.79615,1.33619 3.25,0.90835 17.3329,-3.02208 29.11127,-14.80045 32.13335,-32.13335 0.41902,-2.40331 0.19776,-3.25 -0.84933,-3.25 -2.35046,0 -2.88424,-2.09566 -0.68056,-2.67193 1.68697,-0.44115 1.95702,-1.10023 1.50896,-3.68269 -2.98531,-17.20622 -14.82442,-29.01448 -32.11242,-32.02873 -2.45385,-0.42784 -3.25,-0.20532 -3.25,0.90835 0,0.81125 -0.675,1.475 -1.5,1.475 -0.825,0 -1.5,-0.66375 -1.5,-1.475 0,-1.11367 -0.79615,-1.33619 -3.25,-0.90835 -17.3329,3.02208 -29.11127,14.80045 -32.13335,32.13335 -0.42784,2.45385 -0.20532,3.25 0.90835,3.25 0.81125,0 1.475,0.675 1.475,1.5 0,0.825 -0.66375,1.5 -1.475,1.5 -2.705,0 0.12976,10.99972 4.7097,18.27509 6.20997,9.8647 15.79543,15.68409 29.0153,17.61534 0.4125,0.0603 0.75,-0.56543 0.75,-1.39043 z m -20,-15.71146 c 0,-0.66631 3.63792,-6.70339 8.08426,-13.41574 l 8.08426,-12.20428 12.20428,-8.08426 c 6.71235,-4.44634 12.74943,-8.08426 13.41574,-8.08426 2.33173,0 1.14894,2.5173 -6.8728,14.6272 l -8.08426,12.20428 -12.20428,8.08426 c -12.1099,8.02174 -14.6272,9.20453 -14.6272,6.8728 z m 23.25659,-16.73148 c 0.41613,-0.36863 -0.52091,-1.89417 -2.0823,-3.39008 l -2.8389,-2.71984 -5.71636,8.58974 -5.71636,8.58974 7.79867,-5.19965 c 4.28926,-2.85981 8.13913,-5.50127 8.55525,-5.86991 z"
         id="path3501"
         inkscape:connector-curvature="0" />
      <path
         style="fill-opacity:1"
         d="m 371.5,325.78054 c -20.48667,-4.46898 -34.56396,-25.08823 -31.02051,-45.43626 2.94926,-16.93588 16.05725,-30.14417 32.9355,-33.1875 21.27275,-3.83571 42.11142,11.12231 46.16827,33.13963 3.80116,20.62963 -11.29579,41.87719 -32.51692,45.76457 -7.09359,1.29943 -8.43465,1.27527 -15.56634,-0.28044 z m 7,-3.13261 c 0,-0.825 0.675,-1.5 1.5,-1.5 0.825,0 1.5,0.73251 1.5,1.62781 0,1.35424 0.71425,1.51441 4.25,0.95309 15.08178,-2.39434 28.91158,-16.23184 31.32841,-31.34586 0.56334,-3.52295 0.4035,-4.23504 -0.9506,-4.23504 -0.8953,0 -1.62781,-0.675 -1.62781,-1.5 0,-0.825 0.73251,-1.5 1.62781,-1.5 1.35424,0 1.51441,-0.71425 0.95309,-4.25 -2.39434,-15.08178 -16.23184,-28.91158 -31.34587,-31.32841 -3.52294,-0.56334 -4.23503,-0.4035 -4.23503,0.9506 0,0.8953 -0.675,1.62781 -1.5,1.62781 -0.825,0 -1.5,-0.73251 -1.5,-1.62781 0,-1.35424 -0.71425,-1.51441 -4.25,-0.95309 -15.08178,2.39434 -28.91158,16.23184 -31.32841,31.34586 -0.56334,3.52295 -0.4035,4.23504 0.9506,4.23504 0.8953,0 1.62781,0.675 1.62781,1.5 0,0.825 -0.73251,1.5 -1.62781,1.5 -1.35424,0 -1.51441,0.71425 -0.95309,4.25 1.63519,10.29997 10.14543,22.3402 19.0809,26.99553 8.32827,4.33897 16.5,5.95077 16.5,3.25447 z m -20,-15.44978 c 0,-0.52237 3.7125,-6.48487 8.25,-13.25 l 8.25,-12.30022 12.3913,-8.25 c 6.81522,-4.5375 12.77771,-8.25 13.25,-8.25 1.79372,0 0.61874,2.25731 -7.3913,14.19978 l -8.25,12.30022 -12.3913,8.25 c -12.30272,8.19102 -14.1087,9.12549 -14.1087,7.30022 z m 18.70797,-13.52837 6.20798,-4.14436 -3.14672,-3.14672 -3.14672,-3.14672 -4.14435,6.20798 c -2.2794,3.41438 -5.00697,7.55797 -6.06126,9.20797 l -1.9169,3 3,-1.9169 c 1.65,-1.05429 5.79359,-3.78186 9.20797,-6.06125 z"
         id="path3499"
         inkscape:connector-curvature="0" />
    </g>
  </g>
</svg>
