<?xml version="1.0" encoding="UTF-8" standalone="no"?>
<svg
   xmlns:dc="http://purl.org/dc/elements/1.1/"
   xmlns:cc="http://creativecommons.org/ns#"
   xmlns:rdf="http://www.w3.org/1999/02/22-rdf-syntax-ns#"
   xmlns:svg="http://www.w3.org/2000/svg"
   xmlns="http://www.w3.org/2000/svg"
   version="1.1"
   id="svg2"
   viewBox="0 0 66.036462 65.981172"
   height="65.981171"
   width="66.036461">
  <defs
     id="defs4" />
  <metadata
     id="metadata7">
    <rdf:RDF>
      <cc:Work
         rdf:about="">
        <dc:format>image/svg+xml</dc:format>
        <dc:type
           rdf:resource="http://purl.org/dc/dcmitype/StillImage" />
        <dc:title></dc:title>
      </cc:Work>
    </rdf:RDF>
  </metadata>
  <g
     transform="translate(-125.99651,-112.18203)"
     id="layer1">
    <path
       id="path3347"
       d="m 169.23743,167.90063 c -5.6252,-5.64441 -10.22764,-10.59239 -10.22764,-10.9955 0,-2.23516 3.43329,0.23391 11.51163,8.27866 l 9.04921,9.01159 4.46958,-4.59285 c 3.35636,-3.44893 3.97145,-4.51035 2.46958,-4.26159 -1.57307,0.26056 -1.93322,-0.14902 -1.68714,-1.91873 0.34239,-2.46237 -1.61879,-3.04407 -3.59619,-1.06667 -1.74219,1.74219 -2.83864,0.0422 -1.42882,-2.21524 1.69404,-2.71258 1.53501,-3.1387 -1.03785,-2.78095 -1.56082,0.21703 -2.25391,-0.20155 -2.26275,-1.36656 -0.0191,-2.51457 -1.24835,-3.26374 -2.98725,-1.82058 -2.07144,1.71914 -3.22413,0.38915 -1.73262,-1.99912 1.22797,-1.96629 0.10034,-3.65519 -1.69828,-2.54359 -1.75024,1.08171 -2.30904,-1.64592 -0.67247,-3.28249 1.51103,-1.51103 2.41889,-0.84766 12.12991,8.86337 l 10.49664,10.49663 -6.28395,6.2281 -6.28395,6.22809 -10.22764,-10.26257 z m -40.81697,5.66631 c 2.24922,-9.29943 2.71419,-10.07155 11.06606,-18.37586 l 8.52971,-8.48112 -11.00986,-11.04118 -11.00986,-11.04118 6.27859,-6.22279 6.27859,-6.22278 10.9412,10.97524 10.9412,10.97523 10.14188,-9.98015 c 10.89167,-10.71797 13.49994,-11.91202 17.43182,-7.98014 4.52112,4.52112 3.65521,5.74794 -22.75,32.23208 -19.12373,19.1809 -25.54564,25.03235 -28.25,25.74055 -9.86802,2.58418 -9.36236,2.61821 -8.58933,-0.5779 z m 33.80856,-26.1138 22.73519,-22.71907 -2.69117,-2.80897 -2.69116,-2.80897 -22.78605,22.76988 c -12.53232,12.52344 -22.78604,23.18813 -22.78604,23.69931 0,1.33768 3.1147,4.58689 4.39701,4.58689 0.59786,0 11.31786,-10.22358 23.82222,-22.71907 z m -8.72091,-6.27917 c 2.86998,-2.99563 3.9547,-6.60374 2.29387,-7.63019 -0.48389,-0.29906 -1.51538,-0.0163 -2.29219,0.62843 -2.17714,1.80686 -3.96023,0.16603 -2.0788,-1.91293 1.82738,-2.01923 0.30866,-4.30437 -2.21666,-3.33532 -1.12011,0.42983 -1.38091,0.15026 -0.93759,-1.00503 0.90941,-2.36989 -1.66896,-4.17218 -3.24758,-2.27006 -0.68529,0.82572 -1.67431,1.2366 -2.19782,0.91305 -0.54533,-0.33703 -0.28923,-1.32044 0.59965,-2.30264 1.82738,-2.01923 0.30866,-4.30437 -2.21666,-3.33532 -1.10543,0.4242 -1.38049,0.14914 -0.95629,-0.95629 0.3275,-0.85346 0.0879,-2.05929 -0.53241,-2.67962 -0.83717,-0.83717 -2.23775,-0.0386 -5.4339,3.09817 l -4.30602,4.22604 9.74328,9.77997 c 5.3588,5.37899 10.00503,9.77998 10.32495,9.77998 0.31992,0 1.87429,-1.34921 3.45417,-2.99824 z"
       style="fill:#000000" />
  </g>
</svg>
