<?xml version="1.0" encoding="UTF-8" standalone="no"?>
<svg
   xmlns:dc="http://purl.org/dc/elements/1.1/"
   xmlns:cc="http://creativecommons.org/ns#"
   xmlns:rdf="http://www.w3.org/1999/02/22-rdf-syntax-ns#"
   xmlns:svg="http://www.w3.org/2000/svg"
   xmlns="http://www.w3.org/2000/svg"
   version="1.1"
   id="svg3856"
   viewBox="0 0 77.89923 77.009309"
   height="77.009308"
   width="77.899231">
  <defs
     id="defs3858" />
  <metadata
     id="metadata3861">
    <rdf:RDF>
      <cc:Work
         rdf:about="">
        <dc:format>image/svg+xml</dc:format>
        <dc:type
           rdf:resource="http://purl.org/dc/dcmitype/StillImage" />
        <dc:title></dc:title>
      </cc:Work>
    </rdf:RDF>
  </metadata>
  <g
     transform="translate(-336.05039,-493.85756)"
     id="layer1">
    <g
       transform="translate(320.679,207.1475)"
       id="g3503">
      <path
         id="path3507"
         d="m 47.804768,361.21936 c -0.285479,-1.375 -0.733689,-3.54955 -0.996024,-4.83234 -0.337123,-1.6485 -1.630655,-2.71309 -4.41175,-3.63094 -3.587555,-1.18399 -4.198859,-1.11055 -6.927398,0.83235 -4.018333,2.8613 -5.236964,2.70311 -8.987713,-1.16668 -3.829975,-3.95153 -3.87163,-4.39829 -0.798463,-8.56374 2.307005,-3.12696 2.339365,-3.39842 0.855458,-7.17608 -1.305187,-3.32268 -2.096441,-4.0178 -5.147704,-4.52229 -6.288033,-1.03963 -6.229342,-0.96835 -5.905723,-7.17252 l 0.300265,-5.75643 4.632362,-0.84236 c 4.153259,-0.75523 4.788418,-1.23963 6.141241,-4.68358 1.439823,-3.66543 1.399441,-4.00228 -0.882362,-7.36026 -1.315183,-1.93546 -2.391241,-3.90462 -2.391241,-4.37591 0,-1.3343 6.440397,-7.24922 7.893237,-7.24922 0.713912,0 2.644702,0.95892 4.290643,2.13093 2.728539,1.94289 3.339843,2.01634 6.927398,0.83234 2.597726,-0.85732 4.075533,-2.00618 4.349004,-3.38093 1.625248,-8.17022 1.047579,-7.58234 7.45059,-7.58234 l 5.872769,0 0.858179,4.65848 c 0.788942,4.28264 1.191673,4.77997 4.991716,6.16419 3.923177,1.42908 4.273553,1.39557 6.884859,-0.65848 3.720542,-2.92658 4.47629,-2.77805 8.896233,1.74838 l 3.820524,3.91257 -2.75712,3.61477 -2.757121,3.61478 1.761039,3.90528 c 1.522378,3.37603 2.320543,3.99878 5.889544,4.59512 4.925252,0.82297 5.59313,1.66448 5.613193,7.07246 0.01746,4.70523 -1.010857,5.84654 -6.091099,6.76044 -2.963948,0.53319 -3.919581,1.34325 -5.364354,4.54718 l -1.757943,3.89842 2.769996,3.63165 2.769995,3.63165 -3.858589,3.95156 c -2.122224,2.17335 -4.260295,3.95155 -4.75127,3.95155 -0.490975,0 -2.257561,-0.97188 -3.925745,-2.15973 -2.869893,-2.04355 -3.254779,-2.07897 -7.154371,-0.65849 -3.786298,1.37922 -4.191066,1.87992 -4.979487,6.15973 l -0.858179,4.65849 -5.872769,0 c -5.459205,0 -5.90932,-0.17605 -6.39182,-2.5 z m 9.922961,-2.75 c 0.264065,-1.2375 0.610138,-3.10177 0.769052,-4.14282 0.307,-2.01116 0.90415,-2.4212 7.455731,-5.11967 4.148192,-1.70856 4.18205,-1.70458 7.583494,0.88982 l 3.416698,2.60605 2.260589,-2.40629 2.260589,-2.40629 -2.50278,-3.68317 -2.502781,-3.68317 2.37687,-5.15223 c 2.111245,-4.57645 2.827441,-5.25192 6.408697,-6.04431 3.688341,-0.81608 4.031828,-1.16605 4.031828,-4.10792 0,-2.94187 -0.343487,-3.29184 -4.031828,-4.10792 -3.581256,-0.79239 -4.297452,-1.46786 -6.408697,-6.04431 l -2.37687,-5.15223 2.502781,-3.68317 2.50278,-3.68317 -2.209791,-2.35222 -2.209791,-2.35221 -3.753377,2.48386 c -3.674495,2.43167 -3.834938,2.44882 -7.634292,0.81628 -6.444891,-2.76929 -6.86998,-3.06764 -7.16985,-5.03209 -0.948368,-6.21278 -1.173958,-6.52466 -4.487187,-6.20362 -2.309879,0.22382 -3.29065,0.8705 -3.504623,2.3108 -0.833901,5.61315 -1.258385,6.14819 -6.650986,8.3833 l -5.492297,2.27643 -3.37148,-2.57155 -3.37148,-2.57156 -2.348512,2.49988 -2.348511,2.49987 2.322501,3.14135 2.3225,3.14135 -1.997583,5.60047 c -1.950069,5.46725 -2.109319,5.62111 -6.695042,6.4686 -4.493718,0.8305 -4.68425,1.00216 -4.392912,3.958 0.270506,2.74447 0.796278,3.20892 4.703795,4.15515 4.160327,1.00745 4.507392,1.3682 6.390495,6.64247 l 1.991247,5.57717 -2.3225,3.14135 -2.322501,3.14135 2.311407,2.46037 2.311406,2.46038 3.350994,-2.55592 3.350993,-2.55593 5.507904,2.2829 c 4.921848,2.03999 5.576325,2.66284 6.150944,5.85373 0.871866,4.84152 1.071771,5.07084 4.420328,5.07084 2.221227,0 3.037067,-0.53957 3.402048,-2.25 z M 44.165347,343.92514 c -14.747906,-7.7044 -15.452497,-28.5114 -1.247388,-36.83615 9.233992,-5.41148 19.925975,-3.92167 26.848807,3.74107 4.463894,4.941 5.660754,7.98335 5.660754,14.3893 0,6.27777 -1.139791,9.28918 -5.316239,14.04589 -6.823025,7.77099 -16.621827,9.53086 -25.945934,4.65989 z m 16.865889,-1.74392 c 7.869749,-3.28819 11.694576,-9.70084 11.055532,-18.53554 -0.901974,-12.46965 -13.163428,-20.14436 -24.569523,-15.37859 -7.621713,3.18455 -11.516766,8.98489 -11.444363,17.04241 0.07177,7.98723 3.822477,13.60891 11.219974,16.81688 4.516259,1.9585 9.138127,1.97695 13.73838,0.0549 z m -13.791487,-9.21186 c -2.198921,-1.9649 -3.239159,-3.95536 -3.643701,-6.97208 -0.51556,-3.84459 -0.250763,-4.53749 2.961744,-7.75 2.86806,-2.86806 4.280438,-3.52792 7.551199,-3.52792 7.98331,0 13.279856,8.03231 9.770937,14.81781 -3.486684,6.74251 -11.163594,8.32594 -16.640179,3.43219 z m 11.006525,-1.22889 c 2.84495,-1.52257 4.043999,-6.10499 2.535935,-9.69162 -3.137082,-7.46092 -13.896493,-5.00614 -13.896493,3.17051 0,5.96726 5.980752,9.40029 11.360558,6.52111 z"
         style="fill-opacity:1" />
      <path
         id="path3505"
         d="m 48.280898,361.20669 c -0.54735,-1.43964 -0.999759,-3.60073 -1.005353,-4.80243 -0.0075,-1.60442 -1.091764,-2.63932 -4.081234,-3.89533 -4.038672,-1.69682 -4.102735,-1.68947 -8.051455,0.92367 l -3.980392,2.6341 -4.069056,-4.06906 -4.069057,-4.06906 2.751077,-3.60684 c 2.544789,-3.3364 2.654497,-3.85038 1.463084,-6.85462 -1.880723,-4.74237 -2.895172,-5.746 -5.825241,-5.76307 -4.457718,-0.026 -5.270474,-1.18976 -4.935202,-7.06666 l 0.307647,-5.39268 3.800846,-0.61352 c 4.320213,-0.69736 4.893622,-1.18044 6.627906,-5.58387 1.130984,-2.87162 1.005024,-3.53153 -1.329989,-6.96781 l -2.579292,-3.79577 3.693212,-3.78219 c 2.031267,-2.0802 4.081911,-3.78219 4.556987,-3.78219 0.475075,0 2.335772,1.12275 4.134881,2.49499 3.252177,2.48056 3.295133,2.4849 7.423107,0.75 3.062073,-1.28692 4.15467,-2.31854 4.162171,-3.92989 0.0056,-1.2017 0.458003,-3.36279 1.005353,-4.80243 0.922468,-2.42627 1.378739,-2.59543 6.244687,-2.3151 l 5.249505,0.30243 0.819689,4.5 c 0.73431,4.03128 1.246518,4.68176 4.917484,6.24499 4.071581,1.73384 4.118721,1.72904 7.368902,-0.75 1.799109,-1.37224 3.662857,-2.49499 4.141662,-2.49499 0.478806,0 2.406588,1.58478 4.28396,3.52174 l 3.413405,3.52174 -2.324137,4.25453 c -2.205142,4.03671 -2.245238,4.44337 -0.783135,7.94267 1.48315,3.54968 2.422627,4.12211 8.172796,4.97975 1.66956,0.24902 2.05083,1.18983 2.307647,5.69429 0.336922,5.90945 -0.471249,7.04434 -5.034594,7.06997 -1.729567,0.01 -3.245919,0.83825 -4.145875,2.26531 -2.819051,4.47018 -2.855014,6.52082 -0.183311,10.45258 l 2.55869,3.76545 -3.939653,3.93965 -3.939652,3.93966 -3.980392,-2.6341 c -3.945837,-2.61123 -4.015261,-2.61925 -7.997249,-0.92367 -3.58161,1.52509 -4.105677,2.19803 -4.836548,6.21043 l -0.819689,4.5 -5.249505,0.30243 c -4.865948,0.28033 -5.322219,0.11117 -6.244687,-2.3151 z m 10.018473,-2.73733 c 0.02044,-3.36878 1.098068,-6.75 2.151283,-6.75 0.512421,0 2.759014,-0.88287 4.992428,-1.96194 l 4.060754,-1.96195 3.596042,2.44358 3.596042,2.44357 2.294898,-2.15594 c 2.827211,-2.65603 2.836685,-3.1555 0.129315,-6.81741 -2.065814,-2.79417 -2.092755,-3.10327 -0.584779,-6.70951 0.869442,-2.07922 1.829831,-4.5679 2.134198,-5.5304 0.312124,-0.98703 1.548039,-1.75595 2.834779,-1.76366 5.210399,-0.0312 6.781385,-1.07273 6.781385,-4.49598 0,-3.5643 -1.260745,-4.49036 -6.113172,-4.49036 -1.931657,0 -3.140581,-0.60395 -3.502992,-1.75 -0.304367,-0.9625 -1.24524,-3.4079 -2.090828,-5.43422 -1.457344,-3.4923 -1.419734,-3.87466 0.721996,-7.34006 l 2.25943,-3.65583 -2.407977,-2.40798 -2.407977,-2.40798 -3.608291,2.4519 -3.608291,2.4519 -3.832391,-1.95387 c -2.107815,-1.07462 -4.359758,-1.95386 -5.004318,-1.95386 -1.262898,0 -2.369525,-3.12341 -2.391534,-6.75 -0.01184,-1.95019 -0.538489,-2.25 -3.952382,-2.25 -3.865876,0 -3.950666,0.0786 -4.58422,4.25 -0.610351,4.01862 -0.930933,4.36172 -5.888474,6.30207 l -5.242981,2.05207 -3.728085,-2.47406 -3.728085,-2.47405 -2.440205,2.4402 -2.440204,2.44021 2.650405,3.72504 2.650405,3.72504 -1.844807,4.25674 c -2.526845,5.83048 -3.350141,6.75674 -6.005679,6.75674 -4.17431,0 -5.459343,1.05695 -5.459343,4.49036 0,3.38393 1.575888,4.463 6.565986,4.49598 1.553777,0.0103 2.625568,1.36375 4.323045,5.45922 l 2.257058,5.44556 -2.571077,3.78368 -2.571078,3.78368 2.369806,2.3698 2.369805,2.36981 3.922794,-2.59598 3.922794,-2.59598 3.916875,1.99693 c 2.154282,1.09832 4.445632,1.99694 5.09189,1.99694 0.646258,0 1.478682,2.025 1.849831,4.5 0.668436,4.45745 0.712062,4.5 4.613544,4.5 3.413893,0 3.940546,-0.29981 3.952382,-2.25 z M 48.014175,345.44405 c -16.043247,-5.20953 -20.06193,-25.88565 -7.106781,-36.56437 14.473445,-11.93024 35.733344,-0.51365 34.169118,18.34886 -1.077852,12.99749 -14.763441,22.20918 -27.062337,18.21551 z m 13.569283,-3.07573 c 5.7106,-2.38605 11.691104,-11.15848 11.691104,-17.14896 0,-5.99048 -5.980504,-14.76291 -11.691104,-17.14896 -7.960517,-3.32611 -18.389613,-0.19154 -23.113726,6.94708 -2.182427,3.29787 -2.684016,5.20673 -2.684016,10.21435 0,5.14047 0.470593,6.8376 2.846755,10.2664 4.985603,7.19422 15.000434,10.19204 22.950987,6.87009 z m -12.944648,-8.5753 c -6.562296,-4.00145 -6.266231,-13.99874 0.518468,-17.50724 3.799126,-1.96461 6.429647,-1.97914 10.148454,-0.0561 3.630437,1.87737 4.979984,4.31351 4.979984,8.98965 0,4.67613 -1.349547,7.11228 -4.979984,8.98965 -3.895411,2.0144 -6.871471,1.89833 -10.666922,-0.41599 z m 11.574326,-3.70852 c 2.629571,-3.34296 2.629571,-6.38732 0,-9.73028 -2.927902,-3.72223 -8.926938,-3.72223 -11.85484,0 -2.629571,3.34296 -2.629571,6.38732 0,9.73028 1.598655,2.03236 2.954044,2.63486 5.92742,2.63486 2.973376,0 4.328765,-0.6025 5.92742,-2.63486 z"
         style="fill-opacity:1" />
    </g>
  </g>
</svg>
