<?xml version="1.0" encoding="UTF-8" standalone="no"?>
<svg
   xmlns:dc="http://purl.org/dc/elements/1.1/"
   xmlns:cc="http://creativecommons.org/ns#"
   xmlns:rdf="http://www.w3.org/1999/02/22-rdf-syntax-ns#"
   xmlns:svg="http://www.w3.org/2000/svg"
   xmlns="http://www.w3.org/2000/svg"
   version="1.1"
   id="svg3674"
   viewBox="0 0 46.465389 34.800681"
   height="9.8215256mm"
   width="13.113565mm">
  <defs
     id="defs3676" />
  <metadata
     id="metadata3679">
    <rdf:RDF>
      <cc:Work
         rdf:about="">
        <dc:format>image/svg+xml</dc:format>
        <dc:type
           rdf:resource="http://purl.org/dc/dcmitype/StillImage" />
        <dc:title></dc:title>
      </cc:Work>
    </rdf:RDF>
  </metadata>
  <g
     transform="translate(-351.76731,-514.96186)"
     id="layer1">
    <g
       transform="translate(59.231306,458.60859)"
       id="g3521">
      <path
         id="path3525"
         d="m 306.65868,88.917086 c -4.87272,-2.269001 -10.62591,-7.859912 -13.37623,-12.998939 -1.16636,-2.179371 -1.05411,-2.852251 0.96703,-5.796473 4.17995,-6.088984 7.41558,-9.060571 12.46481,-11.447596 8.77079,-4.146396 17.08019,-2.726881 24.46327,4.179118 2.5845,2.417505 5.52153,5.922618 6.52672,7.78914 1.80673,3.354901 1.80111,3.432268 -0.49207,6.771064 -4.21657,6.139183 -7.43832,9.102168 -12.49792,11.494096 -6.32948,2.992266 -11.64419,2.995089 -18.05561,0.0096 z m 19.80918,-3.236908 c 2.30091,-1.617137 5.65624,-4.871184 7.4563,-7.231214 3.07335,-4.029439 3.18661,-4.457686 1.85825,-7.02644 -2.13243,-4.123676 -9.75041,-10.706764 -14.02084,-12.116132 -8.40801,-2.774894 -17.43684,0.8842 -24.26203,9.832617 -3.71891,4.87582 -3.57813,5.608077 2.33698,12.155387 7.74495,8.572738 18.21963,10.297759 26.63134,4.385782 z m -15.05357,-7.589391 c -1.72526,-1.725255 -1.51449,-5.8 0.3,-5.8 0.83333,0 1.5,-0.888889 1.5,-2 0,-1.52381 0.66667,-2 2.8,-2 1.54,0 3.34,0.54 4,1.2 1.55008,1.550085 1.55008,7.049915 0,8.6 -0.66,0.66 -2.595,1.2 -4.3,1.2 -1.705,0 -3.64,-0.54 -4.3,-1.2 z m 7.63466,-3.665335 c 0.56704,-4.007665 -1.4654,-4.825147 -4.325,-1.739589 -2.94846,3.181444 -2.44385,4.849507 1.33478,4.412234 1.91811,-0.22197 2.7485,-0.964167 2.99022,-2.672645 z"
         style="fill-opacity:1" />
      <path
         id="path3523"
         d="m 309.53205,89.849399 c -5.40775,-1.690758 -9.55211,-4.988097 -13.82739,-11.001381 -3.41038,-4.796769 -3.42442,-4.860896 -1.71446,-7.829388 0.94825,-1.646154 3.66233,-4.948554 6.03128,-7.338668 10.74601,-10.84199 26.86108,-8.615259 35.93738,4.965717 3.21668,4.813148 3.22958,4.880925 1.5,7.882582 -3.40797,5.914508 -10.10861,11.64467 -15.48326,13.240769 -6.04023,1.793754 -6.94474,1.799596 -12.44355,0.08037 z m 17.56432,-4.240504 c 4.37359,-3.216374 10.04134,-9.944757 10.0901,-11.97831 0.0153,-0.638112 -1.73773,-3.393792 -3.89563,-6.123735 -10.23062,-12.942716 -25.41154,-12.320815 -36.00216,1.474863 -3.06267,3.989533 -3.25041,4.611657 -2.06185,6.832498 1.82658,3.413007 8.19582,9.572814 12.16098,11.761108 5.27281,2.909963 14.30283,2.008991 19.70856,-1.966424 z m -15.22709,-8.146849 c -2.17506,-2.403408 -2.08776,-3.419899 0.42869,-4.991447 1.18202,-0.738183 1.84469,-1.924089 1.53139,-2.740547 -0.82389,-2.147023 3.71356,-1.838604 5.72994,0.389476 2.1712,2.399142 2.10048,5.458119 -0.17375,7.516271 -2.39914,2.171194 -5.45812,2.10048 -7.51627,-0.173753 z m 6.51627,-0.826247 c 2.30932,-2.089903 2.31199,-3.597703 0.0101,-5.680916 -1.70755,-1.545308 -1.95646,-1.45952 -4.07352,1.403962 -1.79684,2.430354 -2.01192,3.342549 -1.05888,4.490892 1.55593,1.874778 2.87522,1.819678 5.12233,-0.213938 z"
         style="fill-opacity:1" />
    </g>
  </g>
</svg>
