<?xml version="1.0" encoding="UTF-8" standalone="no"?>
<svg
   xmlns:dc="http://purl.org/dc/elements/1.1/"
   xmlns:cc="http://creativecommons.org/ns#"
   xmlns:rdf="http://www.w3.org/1999/02/22-rdf-syntax-ns#"
   xmlns:svg="http://www.w3.org/2000/svg"
   xmlns="http://www.w3.org/2000/svg"
   xmlns:sodipodi="http://sodipodi.sourceforge.net/DTD/sodipodi-0.dtd"
   xmlns:inkscape="http://www.inkscape.org/namespaces/inkscape"
   id="svg2"
   version="1.1"
   inkscape:version="0.91 r13725"
   sodipodi:docname="ico-key.svg"
   width="72.719337"
   height="73.824577">
  <metadata
     id="metadata10">
    <rdf:RDF>
      <cc:Work
         rdf:about="">
        <dc:format>image/svg+xml</dc:format>
        <dc:type
           rdf:resource="http://purl.org/dc/dcmitype/StillImage" />
        <dc:title></dc:title>
      </cc:Work>
    </rdf:RDF>
  </metadata>
  <defs
     id="defs8" />
  <sodipodi:namedview
     pagecolor="#ffffff"
     bordercolor="#666666"
     borderopacity="1"
     objecttolerance="10"
     gridtolerance="10"
     guidetolerance="10"
     inkscape:pageopacity="0"
     inkscape:pageshadow="2"
     inkscape:window-width="1280"
     inkscape:window-height="962"
     id="namedview6"
     showgrid="false"
     inkscape:zoom="0.834386"
     inkscape:cx="187.68685"
     inkscape:cy="-140.12583"
     inkscape:window-x="-8"
     inkscape:window-y="-8"
     inkscape:window-maximized="1"
     inkscape:current-layer="svg2"
     fit-margin-top="0"
     fit-margin-left="0"
     fit-margin-right="0"
     fit-margin-bottom="0" />
  <path
     d="m 1.9013031,71.990034 c -2.444,-2.443 -2.515,-4.32 -0.31,-8.055 1.59,-2.69 1.59,-2.977 0,-4.733 -2.34,-2.587 -2.15,-3.62 1.413,-7.677 3.403,-3.876 6.232,-4.446 9.1139999,-1.838 1.794,1.624 2.293,1.28 11.51,-7.937 l 9.633,-9.634 -1.805,-4.002 c -2.755,-6.11 -1.835,-14.954 2.065,-19.86 3.623,-4.553 10.526,-8.26699998 15.34,-8.253999976078 C 57.343303,0.02303402 67.878303,8.130034 71.395303,17.337034 c 5.995,15.698 -9.42,31.154 -25.1,25.166 l -4.582,-1.75 -16.723,16.62 c -17.4999999,17.39 -19.2259999,18.48 -23.0899999,14.617 z m 21.4699999,-17.128 15.718,-16.128 -2.103,-2.102 -2.102,-2.102 -15.993,15.968 c -14.6659999,14.646 -17.2099999,17.938 -15.3239999,19.825 1.972,1.972 5.495,-0.78 19.8039999,-15.46 z m -14.1599999,1.326 c 2.0849999,-2.177 2.4169999,-3.07 1.4869999,-4 -1.7829999,-1.783 -3.1919999,-1.472 -5.7699999,1.273 -1.926,2.05 -2.105,2.732 -1.052,4 1.728,2.082 2.237,1.96 5.335,-1.272 z m 51.6859999,-17.196 c 4.805,-2.452 9.003,-9.153 9.003,-14.372 0,-10.376 -10.775,-21.542 -20.85,-21.608 -10.368,-0.068 -18.857,10.928 -16.162,20.936 2.39,8.878 12.07,17.042 20.208,17.042 2.136,0 5.646,-0.9 7.8,-1.998 z m -11.392,-4.05 c -1.593,-0.472 -4.22,-2.116 -5.84,-3.654 -5.704,-5.422 -7.112,-10.792 -4.27,-16.287 6.026,-11.653 24.778,-4.923 24.778,8.893 0,7.768 -7.263,13.24 -14.668,11.048 z m 6.683,-3.037 c 8.03,-3.66 6.36,-15.007 -2.852,-19.378 -3.017,-1.432 -4.084,-1.51 -6.56,-0.486 -6.648,2.755 -7.838,9.645 -2.68,15.52 4.53,5.16 7.757,6.32 12.092,4.345 z"
     id="path4"
     inkscape:connector-curvature="0" />
</svg>
