<?xml version="1.0" encoding="UTF-8" standalone="no"?>
<svg
   xmlns:dc="http://purl.org/dc/elements/1.1/"
   xmlns:cc="http://creativecommons.org/ns#"
   xmlns:rdf="http://www.w3.org/1999/02/22-rdf-syntax-ns#"
   xmlns:svg="http://www.w3.org/2000/svg"
   xmlns="http://www.w3.org/2000/svg"
   version="1.1"
   id="svg3622"
   viewBox="0 0 72.900376 73.065239"
   height="73.065239"
   width="72.900375">
  <defs
     id="defs3624" />
  <metadata
     id="metadata3627">
    <rdf:RDF>
      <cc:Work
         rdf:about="">
        <dc:format>image/svg+xml</dc:format>
        <dc:type
           rdf:resource="http://purl.org/dc/dcmitype/StillImage" />
        <dc:title></dc:title>
      </cc:Work>
    </rdf:RDF>
  </metadata>
  <g
     transform="translate(-338.54981,-495.82958)"
     id="layer1">
    <g
       transform="translate(170.76409,238.60407)"
       id="g3491">
      <path
         id="path3495"
         d="m 194.1336,328.75498 c -1.01878,-2.65491 1.07104,-7.86358 3.68591,-9.18675 1.35641,-0.68637 4.98427,-1.25458 8.0619,-1.26269 l 5.59569,-0.0147 7.56662,-11.36114 c 9.7398,-14.62412 9.81656,-16.26051 1.24542,-26.55011 -4.00305,-4.80566 -6.60595,-7.08875 -8.08169,-7.08875 -1.19726,0 -2.72737,-0.66335 -3.40025,-1.47412 -0.94715,-1.14125 -2.6119,-1.33545 -7.37244,-0.86003 -3.38197,0.33774 -6.34328,0.78283 -6.58069,0.98909 -0.2374,0.20626 0.94972,1.83078 2.63805,3.61004 5.77857,6.08979 8.46717,14.40408 5.49618,16.99651 -3.30455,2.88351 -9.16462,3.97344 -19.05727,3.54452 -11.64431,-0.50486 -16.14531,-2.35466 -16.14531,-6.63535 0,-3.65487 4.53766,-12.66182 7.58763,-15.06093 1.86109,-1.46393 2.41237,-2.85093 2.41237,-6.06939 0,-9.81591 7.66269,-14.46856 13.77022,-8.36103 2.29739,2.29739 3.39511,2.64132 7.70085,2.41279 2.76185,-0.14659 6.90892,-1.12632 9.21572,-2.17719 5.94776,-2.70952 9.97092,-0.98251 11.83622,5.08089 0.94559,3.07375 12.92134,17.03395 16.1044,18.77296 5.29961,2.89538 5.71672,8.21678 0.98734,12.59637 -2.88943,2.67572 -14.61475,19.62477 -14.61475,21.12573 0,0.28003 1.55383,0.50914 3.45295,0.50914 1.89912,0 4.5687,0.50837 5.93241,1.12972 2.70538,1.23265 4.99749,5.6418 4.44016,8.54118 -0.32516,1.69155 -1.91278,1.84943 -21.11213,2.09946 -18.14129,0.23625 -20.83686,0.0715 -21.36551,-1.30618 z m 39.65212,-2.24167 c 0,-0.42763 -0.70052,-1.77763 -1.5567,-3 -1.4919,-2.12999 -2.18593,-2.22251 -16.67126,-2.22251 -12.66093,0 -15.41143,0.26866 -16.9433,1.65499 -4.35303,3.93943 -2.79688,4.34501 16.67126,4.34501 10.175,0 18.5,-0.34987 18.5,-0.77749 z m -9.09764,-17.73022 c 6.07912,-9.47882 6.97555,-11.49229 5.11654,-11.49229 -0.84671,0 -14.0189,19.3047 -14.0189,20.54561 0,0.24991 0.63106,0.45439 1.40236,0.45439 0.77129,0 4.14629,-4.27847 7.5,-9.50771 z m 11.16338,-14.52747 c 2.33797,-1.25125 2.50805,-4.24818 0.36283,-6.39339 -2.24568,-2.24568 -4.13648,-1.94684 -6.03732,0.95419 -1.54964,2.36506 -1.54126,2.65114 0.13194,4.5 2.03862,2.25265 2.8359,2.38775 5.54255,0.9392 z m -38.21496,-2.06265 c 3.66569,-1.27786 4.12898,-4.06667 1.52863,-9.20183 -3.18423,-6.28822 -3.97522,-6.70034 -12.86008,-6.70034 -7.19495,0 -8.42466,0.27033 -10.29729,2.26365 -2.10251,2.23802 -5.22204,8.66132 -5.22204,10.75251 0,3.39902 19.39816,5.48401 26.85078,2.88601 z m 32.54617,-7.73543 c 0.86393,-1.39787 -10.60979,-14.3539 -11.72449,-13.2392 -0.6467,0.6467 0.35666,2.57936 2.92126,5.62688 2.14845,2.55303 4.52367,5.4977 5.27825,6.54372 1.4704,2.0383 2.69604,2.40986 3.52498,1.0686 z m -39.59705,-16.89698 c -0.27308,-5.21773 -0.54315,-5.81539 -3.01962,-6.68239 -4.20216,-1.47115 -6.78028,1.40635 -6.78028,7.56762 l 0,4.84501 5.0499,0 5.04991,0 -0.29991,-5.73024 z m 25.62867,1.15881 c 2.04603,-2.04603 1.98168,-3.01832 -0.35436,-5.35436 -2.45392,-2.45392 -5.89052,-1.65426 -6.69682,1.55827 -1.13661,4.52865 3.7096,7.13767 7.05118,3.79609 z m -12.01036,-1.03556 c 3.4411,-1.32047 1.28433,-2.47709 -4.08921,-2.19291 -7.07887,0.37435 -8.80637,2.7999 -1.99412,2.7999 2.47585,0 5.21335,-0.27315 6.08333,-0.60699 z"
         style="fill-opacity:1" />
      <path
         id="path3493"
         d="m 194.78572,326.44579 c 0,-5.57237 2.21735,-7.1507 10.07874,-7.17413 l 6.42126,-0.0192 7.75,-11.77223 c 10.19076,-15.47974 10.29177,-17.12964 1.66116,-27.13252 -3.34886,-3.88133 -6.84873,-7.05696 -7.77749,-7.05696 -0.92876,0 -2.70154,-0.70945 -3.93951,-1.57656 -1.77572,-1.24376 -3.61696,-1.43026 -8.72251,-0.8835 -3.55941,0.38118 -6.47165,0.79239 -6.47165,0.91379 0,0.1214 1.72464,2.03371 3.83254,4.24957 3.81832,4.01389 6.70918,11.19365 6.01015,14.92685 -0.50441,2.69379 -8.91657,5.27453 -17.34269,5.3205 -7.91388,0.0432 -13.33613,-1.18762 -16.49276,-3.7437 -2.00331,-1.62219 -2.06949,-2.07411 -0.95295,-6.50827 0.78923,-3.1343 2.69639,-6.42955 5.57278,-9.62879 3.91943,-4.35934 4.37293,-5.3769 4.37293,-9.81183 0,-5.22022 1.42231,-7.38894 5.70002,-8.6913 2.51717,-0.76637 7.75786,1.57811 8.63456,3.86276 0.4679,1.21933 1.86105,1.3901 7.37118,0.90353 3.73683,-0.32998 7.50467,-1.21491 8.37298,-1.96651 3.49747,-3.02737 10.92126,-0.131 10.92126,4.2609 0,2.10598 13.72739,18.29123 16.63854,19.61764 4.71931,2.15026 5.18955,10.70645 0.66874,12.16811 -1.5368,0.49688 -15.30728,20.28558 -15.30728,21.99715 0,0.32431 2.40526,0.58966 5.34501,0.58966 6.41105,0 8.65499,1.90009 8.65499,7.32874 l 0,3.67126 -20.5,0 -20.5,0 0,-3.84501 z m 39,-0.22073 c 0,-0.58616 -0.46583,-1.93616 -1.03518,-3 -0.95832,-1.79063 -2.24291,-1.93426 -17.3,-1.93426 -16.80972,0 -18.66482,0.41744 -18.66482,4.2 0,1.66847 1.35185,1.8 18.5,1.8 12.42746,0 18.5,-0.34983 18.5,-1.06574 z M 225.126,308.65154 c 5.21182,-8.10015 6.5232,-10.82708 5.50836,-11.45428 -0.73256,-0.45275 -1.61619,-0.50442 -1.96362,-0.11482 -1.07909,1.21005 -13.88502,21.27338 -13.88502,21.75397 0,0.24991 0.7875,0.45256 1.75,0.45031 1.12591,-0.003 4.18939,-3.79534 8.59028,-10.63518 z m 11.45972,-14.56074 c 1.65776,-1.65776 1.50366,-5.3031 -0.28701,-6.78922 -3.7772,-3.1348 -9.63701,2.72501 -6.50221,6.50221 1.48612,1.79067 5.13146,1.94477 6.78922,0.28701 z m -41.91452,-0.86886 c 6.85402,-1.46992 7.80166,-2.84337 5.72098,-8.29154 -2.8294,-7.40869 -5.30304,-8.94823 -14.61642,-9.09694 -8.81345,-0.14074 -10.00879,0.49904 -13.37307,7.15768 -2.63788,5.22095 -2.14588,7.9798 1.63303,9.15694 7.55441,2.35324 13.28051,2.65122 20.63548,1.07386 z m 35.78444,-9.49364 c 0.16221,-0.51563 -2.35763,-3.8625 -5.59964,-7.4375 -4.35607,-4.80348 -6.19293,-6.21152 -7.0377,-5.39473 -0.84925,0.82113 0.32271,2.82238 4.55868,7.78449 5.26544,6.16805 7.322,7.45304 8.07866,5.04774 z m -38.66992,-14.71499 c 0,-5.51279 -2.21581,-8.72251 -6.02152,-8.72251 -3.61306,0 -4.97848,2.31322 -4.97848,8.43426 l 0,4.56574 5.5,0 5.5,0 0,-4.27749 z m 24.98922,-0.20952 c 3.1348,-3.7772 -2.72501,-9.63701 -6.50221,-6.50221 -1.79067,1.48612 -1.94477,5.13146 -0.28701,6.78922 1.65776,1.65776 5.3031,1.50366 6.78922,-0.28701 z m -14.73922,-0.49934 c 3.15258,-0.0115 3.75,-0.35219 3.75,-2.13865 0,-1.84667 -0.40931,-2.04314 -3.125,-1.5 -1.71875,0.34375 -4.41875,0.625 -6,0.625 -2.26114,0 -2.875,0.45194 -2.875,2.11663 0,1.70702 0.43542,1.99994 2.25,1.51366 1.2375,-0.33164 3.9375,-0.60913 6,-0.61664 z"
         style="fill-opacity:1" />
    </g>
  </g>
</svg>
