<?xml version="1.0" encoding="UTF-8" standalone="no"?>
<svg
   xmlns:dc="http://purl.org/dc/elements/1.1/"
   xmlns:cc="http://creativecommons.org/ns#"
   xmlns:rdf="http://www.w3.org/1999/02/22-rdf-syntax-ns#"
   xmlns:svg="http://www.w3.org/2000/svg"
   xmlns="http://www.w3.org/2000/svg"
   version="1.1"
   id="svg2"
   viewBox="0 0 30.8542 54.75368"
   height="54.753681"
   width="30.8542">
  <defs
     id="defs4" />
  <metadata
     id="metadata7">
    <rdf:RDF>
      <cc:Work
         rdf:about="">
        <dc:format>image/svg+xml</dc:format>
        <dc:type
           rdf:resource="http://purl.org/dc/dcmitype/StillImage" />
        <dc:title></dc:title>
      </cc:Work>
    </rdf:RDF>
  </metadata>
  <g
     transform="translate(-211.10479,-386.41467)"
     id="layer1">
    <path
       id="path3357"
       d="m 226.89062,386.41797 c -5.47741,-0.10621 -10.56458,2.35077 -13.76757,7.00586 -3.15195,4.58091 -2.5612,10.82916 1.41601,14.98047 l 2.80664,2.92773 -3.20898,3.31055 c -5.12584,5.28852 -1.00617,6.84703 4.35742,1.64844 l 3.12695,-3.0293 5.60157,2.14258 c 6.89215,2.63747 9.74493,5.54299 10.42578,10.61914 0.70635,5.26619 -3.11452,10.02416 -8.77735,10.92968 -3.6639,0.58588 -4.88562,2.05304 -3.1582,3.79102 1.08914,1.0958 7.06099,-0.068 9.90234,-1.92969 3.68012,-2.4113 6.33975,-7.4803 6.34375,-12.09375 0.005,-5.96928 -3.33108,-10.28619 -10.76171,-13.92968 l -6.18555,-3.03321 8.15234,-8.15234 c 9.14154,-9.14154 9.20824,-9.82006 1.29883,-13.41797 -2.51089,-1.14218 -5.08253,-1.72125 -7.57227,-1.76953 z m -1.77539,4.16601 c 3.85246,-0.10388 9.84766,1.32461 9.84766,2.55469 0,1.55574 -14.34291,14.83567 -14.34291,14.83567 -1.74509,-0.79716 -5.27931,-4.55429 -5.47852,-7.09654 -0.38712,-4.94032 4.47106,-9.76442 8.47768,-10.14928 0.43919,-0.0824 0.94574,-0.1297 1.49609,-0.14454 z"
       style="fill:#fff" />
  </g>
</svg>
