<?xml version="1.0" encoding="UTF-8" standalone="no"?>
<svg
   xmlns:dc="http://purl.org/dc/elements/1.1/"
   xmlns:cc="http://creativecommons.org/ns#"
   xmlns:rdf="http://www.w3.org/1999/02/22-rdf-syntax-ns#"
   xmlns:svg="http://www.w3.org/2000/svg"
   xmlns="http://www.w3.org/2000/svg"
   version="1.1"
   id="svg3831"
   viewBox="0 0 14.999999 12.765795"
   height="3.6027911mm"
   width="4.2333331mm">
  <defs
     id="defs3833" />
  <metadata
     id="metadata3836">
    <rdf:RDF>
      <cc:Work
         rdf:about="">
        <dc:format>image/svg+xml</dc:format>
        <dc:type
           rdf:resource="http://purl.org/dc/dcmitype/StillImage" />
        <dc:title></dc:title>
      </cc:Work>
    </rdf:RDF>
  </metadata>
  <g
     transform="translate(-569.64286,-63.122164)"
     id="layer1">
    <path
       id="path3547"
       d="m 569.64286,73.478347 c 0,-1.393111 1.75353,-4.012761 4.47179,-6.680521 4.40332,-4.32153 4.50321,-4.36029 6.52447,-2.53107 l 2.05269,1.85766 -3.22064,3.32286 c -2.96195,3.05595 -3.04898,3.32286 -1.08349,3.32286 1.17543,0 2.43422,0.480681 2.79731,1.068171 0.3631,0.5875 1.28965,0.82662 2.05902,0.53139 0.76937,-0.29524 1.39885,-0.10091 1.39885,0.43182 0,1.29102 -3.71099,1.24526 -4.51502,-0.0557 -0.67204,-1.08739 -4.92932,-0.86469 -6.11383,0.31982 -1.65003,1.65003 -4.37115,0.6619 -4.37115,-1.58731 z m 6.47947,-2.214711 c 2.34832,-1.91885 2.72042,-2.69361 1.75659,-3.65744 -0.96383,-0.96383 -1.85976,-0.6127 -4.22947,1.65762 -5.0201,4.809561 -2.98242,6.457441 2.47288,1.99982 z m 4.02053,-5.4935 c -0.33992,-0.55 -1.06803,-1 -1.61803,-1 -0.55,0 -0.72189,0.45 -0.38197,1 0.33992,0.55 1.06803,1 1.61803,1 0.55,0 0.72189,-0.45 0.38197,-1 z"
       style="fill:#dddddd;fill-opacity:1" />
  </g>
</svg>
