<?xml version="1.0" encoding="UTF-8" standalone="no"?>
<svg
   xmlns:dc="http://purl.org/dc/elements/1.1/"
   xmlns:cc="http://creativecommons.org/ns#"
   xmlns:rdf="http://www.w3.org/1999/02/22-rdf-syntax-ns#"
   xmlns:svg="http://www.w3.org/2000/svg"
   xmlns="http://www.w3.org/2000/svg"
   version="1.1"
   id="svg3731"
   viewBox="0 0 27 44.999999"
   height="12.7mm"
   width="7.6199999mm">
  <defs
     id="defs3733" />
  <metadata
     id="metadata3736">
    <rdf:RDF>
      <cc:Work
         rdf:about="">
        <dc:format>image/svg+xml</dc:format>
        <dc:type
           rdf:resource="http://purl.org/dc/dcmitype/StillImage" />
        <dc:title></dc:title>
      </cc:Work>
    </rdf:RDF>
  </metadata>
  <g
     transform="translate(-635.07143,-801.29078)"
     id="layer1">
    <g
       transform="translate(120,351.42857)"
       id="g3515">
      <path
         id="path3519"
         d="m 515.07143,472.36221 0,-22.5 13.5,0 13.5,0 0,22.5 0,22.5 -13.5,0 -13.5,0 0,-22.5 z m 25,0 0,-20.5 -11.5,0 -11.5,0 0,20.5 0,20.5 11.5,0 11.5,0 0,-20.5 z m -13.66813,17.92246 c -0.33295,-0.86765 0.0669,-2.24979 0.88853,-3.07143 1.32518,-1.32518 1.67461,-1.31316 3.09425,0.10648 0.8802,0.8802 1.34635,2.26234 1.03587,3.07143 -0.75111,1.95737 -4.25521,1.88302 -5.01865,-0.10648 z m -0.33187,-35.42246 c 0,-0.55 1.125,-1 2.5,-1 1.375,0 2.5,0.45 2.5,1 0,0.55 -1.125,1 -2.5,1 -1.375,0 -2.5,-0.45 -2.5,-1 z"
         style="fill-opacity:1" />
    </g>
  </g>
</svg>
