<?xml version="1.0" encoding="UTF-8" standalone="no"?>
<svg
   xmlns:dc="http://purl.org/dc/elements/1.1/"
   xmlns:cc="http://creativecommons.org/ns#"
   xmlns:rdf="http://www.w3.org/1999/02/22-rdf-syntax-ns#"
   xmlns:svg="http://www.w3.org/2000/svg"
   xmlns="http://www.w3.org/2000/svg"
   version="1.1"
   id="svg3758"
   viewBox="0 0 34.060712 33"
   height="9.3133335mm"
   width="9.61269mm">
  <defs
     id="defs3760" />
  <metadata
     id="metadata3763">
    <rdf:RDF>
      <cc:Work
         rdf:about="">
        <dc:format>image/svg+xml</dc:format>
        <dc:type
           rdf:resource="http://purl.org/dc/dcmitype/StillImage" />
        <dc:title></dc:title>
      </cc:Work>
    </rdf:RDF>
  </metadata>
  <g
     transform="translate(-62.969641,-44.433633)"
     id="layer1">
    <g
       transform="translate(13.520341,6.5022629)"
       id="g3527">
      <path
         id="path3531"
         d="m 67.718762,64.703526 -6.227845,-6.227845 -5.411841,5.344616 c -2.976513,2.939539 -5.916798,5.176297 -6.533967,4.970574 -0.61717,-0.205723 1.81294,-3.283019 5.400243,-6.838436 l 6.522369,-6.464394 2.214558,2.214558 2.214558,2.214557 3.791448,-3.70225 3.791449,-3.702251 5.519297,5.450737 c 3.035613,2.997906 5.014919,5.618863 4.398457,5.824351 -0.616462,0.205487 -3.0982,-1.567019 -5.514973,-3.938902 l -4.394133,-4.312516 -3.025361,2.89848 -3.025361,2.898479 4.726881,4.799043 c 2.710924,2.752309 4.098917,4.799043 3.254473,4.799043 -0.809824,0 -4.274938,-2.80253 -7.700252,-6.227844 z M 70.038035,46.359941 C 67.005324,43.32723 69.20025,37.93137 73.466606,37.93137 c 2.386038,0 5,2.613962 5,5 0,2.386038 -2.613962,5 -5,5 -1.021429,0 -2.564286,-0.707143 -3.428571,-1.571429 z m 5.470224,-1.978759 c 1.06278,-1.280572 0.997114,-1.839617 -0.377556,-3.214286 -1.552129,-1.55213 -1.776065,-1.55213 -3.328194,0 -1.37467,1.374669 -1.440336,1.933714 -0.377556,3.214286 0.707598,0.852603 1.626342,1.550188 2.041653,1.550188 0.415311,0 1.334055,-0.697585 2.041653,-1.550188 z"
         style="fill-opacity:1" />
      <path
         id="path3529"
         d="m 67.718762,64.703526 -6.227845,-6.227845 -5.487415,5.419251 c -3.018079,2.980589 -5.815049,5.091619 -6.215489,4.691178 -0.400441,-0.40044 2.059426,-3.515573 5.466371,-6.922518 l 6.194444,-6.194444 2.224005,2.224004 2.224004,2.224004 3.802667,-3.713205 3.802668,-3.713206 5.184598,5.184598 c 2.851529,2.851529 4.859092,5.510104 4.461252,5.907945 -0.397841,0.39784 -2.734013,-1.249973 -5.191494,-3.661808 l -4.468146,-4.385155 -3.023563,2.896757 -3.023562,2.896756 4.012675,4.088618 c 3.903229,3.977101 4.809374,5.512914 3.252674,5.512914 -0.418,0 -3.56253,-2.80253 -6.987844,-6.227844 z M 70.466606,45.93137 c -1.1,-1.1 -2,-2.45 -2,-3 0,-1.296935 3.703065,-5 5,-5 1.296935,0 5,3.703065 5,5 0,1.296935 -3.703065,5 -5,5 -0.55,0 -1.9,-0.9 -3,-2 z m 5.5,-3 c 0,-1.832728 -0.601738,-2.585447 -2.254471,-2.820137 -2.457106,-0.348911 -3.852657,1.795603 -2.856989,4.390274 0.361403,0.941801 1.50471,1.442025 2.856989,1.25 1.652733,-0.23469 2.254471,-0.987409 2.254471,-2.820137 z"
         style="fill-opacity:1" />
    </g>
  </g>
</svg>
