<?xml version="1.0" encoding="UTF-8" standalone="no"?>
<svg
   xmlns:dc="http://purl.org/dc/elements/1.1/"
   xmlns:cc="http://creativecommons.org/ns#"
   xmlns:rdf="http://www.w3.org/1999/02/22-rdf-syntax-ns#"
   xmlns:svg="http://www.w3.org/2000/svg"
   xmlns="http://www.w3.org/2000/svg"
   version="1.1"
   id="svg3649"
   viewBox="0 0 72.307868 72.228856"
   height="72.228859"
   width="72.307869">
  <defs
     id="defs3651" />
  <metadata
     id="metadata3654">
    <rdf:RDF>
      <cc:Work
         rdf:about="">
        <dc:format>image/svg+xml</dc:format>
        <dc:type
           rdf:resource="http://purl.org/dc/dcmitype/StillImage" />
        <dc:title></dc:title>
      </cc:Work>
    </rdf:RDF>
  </metadata>
  <g
     transform="translate(-35.274638,-61.962067)"
     id="layer1">
    <path
       id="path3485"
       d="m 69.097547,120.7036 -6.72181,-13.48731 -13.26103,-6.62622 c -7.29357,-3.644433 -13.45924,-6.810853 -13.70151,-7.036503 -1.22581,-1.14175 5.24964,-4.26014 36.85443,-17.74802 19.57802,-8.35525 34.789913,-14.31077 35.286053,-13.81463 0.49614,0.49614 -5.46497,15.70803 -13.827593,35.28605 -14.28735,33.448633 -15.90784,36.913953 -17.26202,36.913953 -0.35459,0 -3.66953,-6.06929 -7.36652,-13.48732 z m 30.84517,-46.512683 c 1.137073,-2.67811 -2.73216,0.70695 -16.47702,14.41518 l -17.96304,17.915183 5.5231,11.01275 5.5231,11.01275 10.95392,-25.42793 c 6.02465,-13.985363 11.62263,-27.002933 12.43994,-28.927933 z m -19.07862,11.96247 c 13.75827,-13.79494 17.16635,-17.68801 14.48958,-16.55151 -1.925,0.81731 -14.94231,6.41517 -28.92736,12.43969 l -25.42735,10.95368 10.92735,5.54632 c 6.01005,3.050473 10.93205,5.569503 10.93778,5.597833 0.006,0.0283 8.10573,-8.065373 18,-17.986013 z"
       style="fill:#000000" />
  </g>
</svg>
