<svg xmlns="http://www.w3.org/2000/svg" viewBox="0 0 39.924135 44.999999" height="48" width="42.586"><path d="M0 27.5V10h32l.022 3.25c.017 2.676.592 3.515 3.248 4.75 6.206 2.885 6.206 11.115 0 14-3.083 1.433-3.228 1.756-3.248 7.25L32 45H0V27.5zm30 0V12H2v31h28V27.5zm6 1.5c1.1-1.1 2-2.9 2-4 0-2.083-3.264-6-5-6-.556 0-1 2.667-1 6 0 6.402.8 7.2 4 4zM7 5c0-1.1.45-2 1-2s1 .9 1 2-.45 2-1 2-1-.9-1-2zm8-1.5c0-1.925.45-3.5 1-3.5s1 1.575 1 3.5S16.55 7 16 7s-1-1.575-1-3.5zM23 5c0-1.1.45-2 1-2s1 .9 1 2-.45 2-1 2-1-.9-1-2z"/><path d="M0 27.5V10h32l.006 3.25c.005 2.56.642 3.612 3 4.954 6.234 3.547 6.234 10.045 0 13.592-2.78 1.582-2.994 2.117-3 7.454L32 45H0V27.5zm30 0V12H2v31h28V27.5zm6.17 1.845c2.278-2.06 2.36-6.1.175-8.516C33.217 17.37 32 18.54 32 25c0 6.376.896 7.31 4.17 4.345zM7 5c0-1.1.45-2 1-2s1 .9 1 2-.45 2-1 2-1-.9-1-2zm8-1.5c0-1.925.45-3.5 1-3.5s1 1.575 1 3.5S16.55 7 16 7s-1-1.575-1-3.5zM23 5c0-1.1.45-2 1-2s1 .9 1 2-.45 2-1 2-1-.9-1-2z"/></svg>