<svg xmlns="http://www.w3.org/2000/svg" width="80.513" height="80.723" viewBox="0 0 80.512935 80.723039"><path d="M31.57 80.138c-1.373-.256-5.298-1.736-8.722-3.288-8.164-3.702-15.49-11.082-19.588-19.733C.33 50.935.067 49.547.067 40.377c0-9.172.264-10.56 3.193-16.74C15.42-2.034 48.73-8.056 68.607 11.82c22.158 22.16 11.914 59.562-18.54 67.697-4.838 1.292-13.364 1.58-18.497.62zm6.997-3.762c0-.825.675-1.5 1.5-1.5s1.5.664 1.5 1.475c0 1.115.796 1.338 3.25.91 17.333-3.022 29.11-14.8 32.133-32.134.42-2.403.198-3.25-.85-3.25-2.35 0-2.883-2.095-.68-2.67 1.687-.443 1.957-1.102 1.51-3.684-2.986-17.206-14.825-29.015-32.113-32.03-2.454-.427-3.25-.204-3.25.91 0 .81-.675 1.474-1.5 1.474s-1.5-.663-1.5-1.475c0-1.112-.796-1.335-3.25-.907-17.333 3.022-29.11 14.8-32.133 32.133-.428 2.454-.206 3.25.908 3.25.81 0 1.475.675 1.475 1.5s-.664 1.5-1.475 1.5c-2.705 0 .13 11 4.71 18.276 6.21 9.864 15.795 15.684 29.015 17.615.412.06.75-.566.75-1.39zm-20-15.71c0-.667 3.638-6.704 8.084-13.417l8.085-12.205L46.94 26.96c6.712-4.446 12.75-8.084 13.415-8.084 2.332 0 1.15 2.518-6.872 14.628l-8.085 12.204-12.204 8.084c-12.11 8.022-14.627 9.205-14.627 6.873zm23.257-16.732c.416-.37-.52-1.895-2.083-3.39l-2.838-2.72-5.716 8.59-5.716 8.59 7.798-5.2c4.29-2.86 8.14-5.502 8.556-5.87z"/><path d="M31.567 79.51C11.08 75.04-2.997 54.42.547 34.072 3.496 17.137 16.603 3.93 33.48.885c21.273-3.835 42.11 11.123 46.168 33.14 3.8 20.63-11.296 41.877-32.517 45.765-7.093 1.3-8.434 1.275-15.566-.28zm7-3.134c0-.825.675-1.5 1.5-1.5s1.5.733 1.5 1.628c0 1.355.714 1.515 4.25.953 15.082-2.394 28.91-16.23 31.328-31.345.564-3.523.404-4.236-.95-4.236-.896 0-1.628-.675-1.628-1.5s.732-1.5 1.628-1.5c1.354 0 1.514-.714.953-4.25-2.395-15.08-16.232-28.91-31.346-31.328-3.523-.563-4.235-.403-4.235.95 0 .896-.675 1.628-1.5 1.628s-1.5-.732-1.5-1.627c0-1.356-.714-1.516-4.25-.954C19.235 5.69 5.405 19.526 2.99 34.64c-.565 3.524-.405 4.236.95 4.236.894 0 1.627.675 1.627 1.5s-.733 1.5-1.628 1.5c-1.355 0-1.515.715-.954 4.25 1.635 10.3 10.145 22.34 19.08 26.996 8.33 4.34 16.5 5.95 16.5 3.254zm-20-15.45c0-.522 3.712-6.484 8.25-13.25l8.25-12.3 12.39-8.25c6.816-4.537 12.78-8.25 13.25-8.25 1.795 0 .62 2.258-7.39 14.2l-8.25 12.3-12.39 8.25c-12.304 8.19-14.11 9.126-14.11 7.3zM37.275 47.4l6.208-4.144-3.147-3.147-3.147-3.146-4.145 6.21c-2.28 3.413-5.007 7.556-6.06 9.206l-1.918 3 3-1.916c1.65-1.055 5.794-3.782 9.208-6.062z"/></svg>