<svg xmlns="http://www.w3.org/2000/svg" viewBox="0 0 66.036462 65.981172" height="65.981" width="66.036"><path d="M43.24 55.72c-5.624-5.646-10.227-10.594-10.227-10.997 0-2.235 3.434.234 11.512 8.28l9.05 9.01 4.47-4.592c3.355-3.448 3.97-4.51 2.468-4.26-1.573.26-1.933-.15-1.687-1.92.343-2.462-1.62-3.044-3.596-1.066-1.742 1.742-2.84.042-1.43-2.216 1.695-2.712 1.536-3.138-1.037-2.78-1.56.216-2.254-.202-2.262-1.367-.02-2.514-1.248-3.263-2.987-1.82-2.07 1.72-3.224.39-1.732-2 1.23-1.965.1-3.654-1.698-2.543-1.75 1.082-2.31-1.645-.672-3.282 1.51-1.51 2.42-.848 12.13 8.863l10.496 10.497-6.283 6.228-6.284 6.228-10.23-10.26zM2.425 61.384c2.25-9.3 2.714-10.072 11.066-18.376l8.53-8.482-11.01-11.04L0 12.445l6.28-6.223L12.556 0l10.94 10.975L34.44 21.95l10.14-9.98C55.474 1.252 58.08.058 62.014 3.99c4.52 4.52 3.655 5.748-22.75 32.232-19.123 19.18-25.545 25.033-28.25 25.74-9.868 2.585-9.362 2.62-8.59-.577zm33.81-26.114l22.734-22.718-2.69-2.81-2.693-2.808L30.8 29.704C18.266 42.227 8.012 52.892 8.012 53.404c0 1.337 3.115 4.586 4.397 4.586.598 0 11.318-10.223 23.823-22.72zm-8.722-6.278c2.87-2.996 3.954-6.604 2.293-7.63-.483-.3-1.515-.017-2.292.628-2.177 1.807-3.96.166-2.08-1.913 1.83-2.02.31-4.304-2.215-3.335-1.12.43-1.38.15-.938-1.005.91-2.37-1.67-4.172-3.247-2.27-.686.826-1.675 1.236-2.198.913-.546-.337-.29-1.32.6-2.303 1.827-2.02.308-4.304-2.217-3.335-1.106.424-1.38.15-.956-.956.327-.854.087-2.06-.533-2.68-.838-.837-2.24-.04-5.435 3.098L3.99 12.43l9.742 9.78c5.36 5.38 10.006 9.78 10.325 9.78.32 0 1.875-1.35 3.455-2.998z"/></svg>