<svg xmlns="http://www.w3.org/2000/svg" viewBox="0 0 77.89923 77.009309" height="77.009" width="77.899"><path d="M32.433 74.51c-.285-1.376-.733-3.55-.996-4.833-.337-1.65-1.63-2.713-4.41-3.63-3.59-1.185-4.2-1.112-6.93.83-4.017 2.863-5.236 2.704-8.987-1.165-3.83-3.952-3.87-4.4-.798-8.564 2.307-3.127 2.34-3.398.855-7.176C9.862 46.65 9.07 45.954 6.02 45.45c-6.288-1.04-6.23-.97-5.906-7.173l.3-5.756 4.633-.842c4.153-.755 4.788-1.24 6.14-4.683 1.44-3.666 1.4-4.003-.88-7.36-1.317-1.936-2.393-3.905-2.393-4.376 0-1.336 6.44-7.25 7.894-7.25.713 0 2.644.958 4.29 2.13 2.73 1.943 3.34 2.017 6.928.833 2.597-.858 4.075-2.007 4.35-3.38C33-.58 32.42.008 38.825.008h5.872l.858 4.658c.79 4.282 1.192 4.78 4.992 6.164 3.923 1.43 4.273 1.396 6.885-.66 3.72-2.925 4.476-2.777 8.896 1.75l3.82 3.912-2.758 3.615-2.757 3.614 1.76 3.905c1.524 3.375 2.322 3.998 5.89 4.594 4.926.823 5.594 1.665 5.614 7.073.016 4.705-1.012 5.846-6.092 6.76-2.964.533-3.92 1.344-5.364 4.547l-1.758 3.9 2.77 3.63 2.77 3.632-3.86 3.952c-2.12 2.173-4.26 3.95-4.75 3.95-.49 0-2.258-.97-3.926-2.158-2.87-2.044-3.255-2.08-7.154-.66-3.787 1.38-4.19 1.88-4.98 6.16l-.858 4.66h-5.873c-5.46 0-5.91-.177-6.392-2.5zm9.923-2.75c.264-1.238.61-3.102.77-4.144.306-2.01.904-2.42 7.455-5.12 4.15-1.708 4.183-1.704 7.585.89l3.416 2.607 2.262-2.407 2.26-2.406-2.502-3.683-2.503-3.683 2.377-5.152c2.11-4.577 2.827-5.252 6.408-6.045 3.69-.816 4.032-1.166 4.032-4.108 0-2.943-.343-3.293-4.032-4.11-3.58-.79-4.297-1.466-6.408-6.043l-2.377-5.152 2.503-3.683 2.502-3.684-2.21-2.352-2.21-2.352-3.752 2.484c-3.675 2.432-3.835 2.45-7.635.816-6.445-2.77-6.87-3.067-7.17-5.032-.948-6.213-1.174-6.525-4.487-6.204-2.31.224-3.29.87-3.504 2.31-.834 5.614-1.26 6.15-6.65 8.385L22.99 16.17l-3.37-2.573-3.373-2.57-2.348 2.5-2.35 2.5 2.323 3.14 2.322 3.14-1.997 5.602c-1.95 5.466-2.11 5.62-6.695 6.467-4.494.83-4.685 1.003-4.393 3.958.27 2.745.796 3.21 4.704 4.156 4.16 1.008 4.507 1.37 6.39 6.643l1.99 5.577-2.32 3.142-2.324 3.14 2.312 2.46 2.31 2.462 3.352-2.556 3.35-2.556 5.51 2.283c4.92 2.04 5.575 2.663 6.15 5.853.872 4.842 1.072 5.07 4.42 5.07 2.222 0 3.037-.538 3.402-2.25zM28.794 57.214C14.046 49.51 13.34 28.705 27.547 20.38c9.234-5.413 19.926-3.923 26.848 3.74 4.464 4.94 5.66 7.983 5.66 14.39 0 6.277-1.14 9.288-5.315 14.045-6.823 7.77-16.622 9.53-25.946 4.66zM45.66 55.47c7.87-3.287 11.694-9.7 11.055-18.534-.902-12.47-13.163-20.145-24.57-15.38-7.62 3.186-11.516 8.986-11.444 17.043.073 7.987 3.824 13.608 11.22 16.816 4.518 1.96 9.14 1.977 13.74.055zm-13.792-9.21c-2.2-1.966-3.24-3.956-3.643-6.973-.516-3.844-.25-4.537 2.96-7.75 2.87-2.868 4.282-3.528 7.553-3.528 7.983 0 13.28 8.032 9.77 14.817-3.486 6.743-11.163 8.326-16.64 3.432zm11.007-1.23c2.845-1.522 4.044-6.105 2.536-9.69-3.136-7.462-13.896-5.007-13.896 3.17 0 5.967 5.98 9.4 11.36 6.52z"/><path d="M32.91 74.497c-.548-1.44-1-3.6-1.006-4.803-.007-1.604-1.092-2.64-4.08-3.895-4.04-1.698-4.104-1.69-8.053.923l-3.98 2.634-4.068-4.07-4.07-4.068 2.752-3.608c2.545-3.337 2.655-3.85 1.463-6.855-1.88-4.742-2.895-5.746-5.825-5.763-4.458-.026-5.27-1.19-4.935-7.067l.307-5.392 3.8-.614c4.32-.696 4.895-1.18 6.63-5.583 1.13-2.87 1.004-3.53-1.33-6.968l-2.58-3.796 3.693-3.783c2.03-2.08 4.082-3.78 4.557-3.78.475 0 2.336 1.122 4.135 2.494 3.25 2.48 3.294 2.485 7.422.75 3.062-1.287 4.155-2.318 4.162-3.93.006-1.2.458-3.362 1.006-4.802.922-2.426 1.378-2.595 6.244-2.315l5.25.302.82 4.5c.734 4.03 1.246 4.68 4.917 6.244 4.072 1.734 4.12 1.73 7.37-.75 1.8-1.372 3.663-2.495 4.14-2.495.48 0 2.408 1.584 4.285 3.52l3.414 3.523-2.325 4.254c-2.205 4.037-2.246 4.444-.783 7.943 1.483 3.55 2.422 4.122 8.172 4.98 1.67.25 2.05 1.19 2.308 5.694.337 5.91-.47 7.044-5.035 7.07-1.73.01-3.246.838-4.145 2.265-2.82 4.47-2.856 6.52-.184 10.452l2.56 3.765-3.94 3.94-3.94 3.94-3.98-2.634c-3.947-2.612-4.016-2.62-7.998-.924-3.582 1.524-4.106 2.197-4.837 6.21l-.82 4.5-5.25.302c-4.865.28-5.32.11-6.243-2.315zm10.018-2.738c.02-3.37 1.098-6.75 2.15-6.75.514 0 2.76-.884 4.994-1.963l4.06-1.962 3.596 2.444 3.597 2.443 2.294-2.156c2.827-2.656 2.836-3.156.13-6.818-2.067-2.795-2.094-3.104-.586-6.71.87-2.08 1.83-4.568 2.134-5.53.312-.988 1.548-1.757 2.835-1.764 5.21-.032 6.78-1.073 6.78-4.496 0-3.565-1.26-4.49-6.112-4.49-1.93 0-3.14-.605-3.502-1.75-.304-.963-1.245-3.41-2.09-5.435-1.458-3.492-1.42-3.875.72-7.34l2.26-3.656-2.407-2.41-2.407-2.407-3.608 2.452-3.61 2.452-3.83-1.954c-2.11-1.074-4.36-1.954-5.005-1.954-1.263 0-2.37-3.124-2.392-6.75-.012-1.95-.54-2.25-3.952-2.25-3.866 0-3.95.078-4.585 4.25-.61 4.018-.93 4.36-5.887 6.3l-5.243 2.053-3.728-2.474-3.728-2.475-2.44 2.44-2.44 2.44 2.65 3.726 2.65 3.726-1.845 4.257c-2.527 5.83-3.35 6.756-6.006 6.756-4.175 0-5.46 1.056-5.46 4.49 0 3.384 1.576 4.463 6.566 4.496 1.554.01 2.626 1.363 4.323 5.46L16.06 53.9l-2.57 3.784-2.572 3.784 2.37 2.37 2.37 2.37 3.923-2.597 3.923-2.595 3.917 1.997c2.155 1.1 4.446 1.997 5.092 1.997.646 0 1.48 2.024 1.85 4.5.668 4.457.712 4.5 4.614 4.5 3.413 0 3.94-.3 3.952-2.25zM32.643 58.733C16.6 53.524 12.58 32.848 25.536 22.17c14.473-11.93 35.733-.514 34.17 18.348-1.08 12.998-14.764 22.21-27.063 18.216zm13.57-3.076c5.71-2.386 11.69-11.158 11.69-17.15 0-5.99-5.98-14.762-11.69-17.148-7.96-3.326-18.39-.19-23.115 6.947-2.182 3.298-2.684 5.207-2.684 10.215 0 5.14.47 6.837 2.847 10.266 4.987 7.194 15.002 10.192 22.952 6.87zm-12.946-8.575c-6.562-4-6.266-14 .52-17.507 3.798-1.965 6.43-1.98 10.147-.056 3.63 1.877 4.98 4.313 4.98 8.99 0 4.675-1.35 7.112-4.98 8.99-3.895 2.013-6.87 1.897-10.667-.417zm11.575-3.71c2.63-3.342 2.63-6.386 0-9.73-2.928-3.72-8.927-3.72-11.855 0-2.63 3.344-2.63 6.388 0 9.73 1.6 2.034 2.954 2.636 5.927 2.636 2.974 0 4.33-.603 5.928-2.636z"/></svg>