<svg xmlns="http://www.w3.org/2000/svg" viewBox="0 0 46.465389 34.800681" height="37.121" width="49.563"><path d="M14.123 32.564c-4.873-2.27-10.626-7.86-13.377-13-1.166-2.178-1.054-2.85.967-5.796 4.18-6.09 7.416-9.06 12.465-11.447 8.77-4.146 17.08-2.726 24.464 4.18 2.584 2.417 5.52 5.923 6.526 7.79 1.807 3.354 1.8 3.43-.492 6.77-4.216 6.14-7.438 9.102-12.498 11.494-6.33 2.992-11.644 2.995-18.055.01zm19.81-3.237c2.3-1.617 5.655-4.87 7.455-7.23 3.074-4.03 3.187-4.46 1.858-7.028-2.132-4.124-9.75-10.708-14.02-12.117-8.408-2.775-17.437.884-24.262 9.833-3.72 4.876-3.58 5.608 2.337 12.155 7.745 8.574 18.22 10.3 26.632 4.387zm-15.055-7.59c-1.725-1.725-1.514-5.8.3-5.8.834 0 1.5-.888 1.5-2 0-1.523.667-2 2.8-2 1.54 0 3.34.54 4 1.2 1.55 1.55 1.55 7.05 0 8.6-.66.66-2.595 1.2-4.3 1.2-1.705 0-3.64-.54-4.3-1.2zm7.635-3.665c.567-4.007-1.465-4.825-4.325-1.74-2.95 3.182-2.444 4.85 1.335 4.413 1.918-.222 2.748-.964 2.99-2.673z"/><path d="M16.996 33.496c-5.408-1.69-9.552-4.988-13.827-11-3.412-4.798-3.426-4.862-1.716-7.83.948-1.647 3.663-4.95 6.03-7.34 10.747-10.84 26.863-8.615 35.94 4.966 3.216 4.814 3.228 4.88 1.5 7.883-3.41 5.914-10.11 11.645-15.484 13.24-6.04 1.795-6.945 1.8-12.444.08zm17.564-4.24c4.374-3.217 10.042-9.945 10.09-11.98.016-.637-1.737-3.392-3.895-6.122C30.525-1.79 15.343-1.166 4.753 12.628c-3.063 3.99-3.25 4.612-2.062 6.833 1.827 3.414 8.197 9.574 12.162 11.762 5.273 2.91 14.303 2.01 19.708-1.966zM19.333 21.11c-2.175-2.405-2.087-3.42.43-4.993 1.18-.738 1.844-1.924 1.53-2.74-.824-2.147 3.714-1.84 5.73.39 2.17 2.398 2.1 5.457-.173 7.516-2.4 2.17-5.46 2.1-7.517-.174zm6.517-.827c2.31-2.09 2.312-3.598.01-5.68-1.708-1.547-1.957-1.46-4.074 1.403-1.797 2.43-2.012 3.342-1.06 4.49 1.557 1.875 2.876 1.82 5.124-.213z"/></svg>