<svg xmlns="http://www.w3.org/2000/svg" width="72.719" height="73.825"><path d="M1.9 71.99c-2.443-2.443-2.514-4.32-.31-8.055 1.59-2.69 1.59-2.977 0-4.733-2.34-2.587-2.15-3.62 1.414-7.677 3.403-3.876 6.232-4.446 9.114-1.838 1.794 1.624 2.293 1.28 11.51-7.937l9.633-9.634-1.804-4.002C28.7 22.004 29.62 13.16 33.52 8.254 37.145 3.7 44.048-.013 48.86 0c8.483.023 19.018 8.13 22.535 17.337 5.995 15.698-9.42 31.154-25.1 25.166l-4.582-1.75-16.723 16.62C7.49 74.763 5.764 75.853 1.9 71.99zm21.47-17.128l15.72-16.128-2.104-2.102-2.102-2.102L18.89 50.498C4.226 65.144 1.68 68.436 3.568 70.323c1.972 1.972 5.495-.78 19.804-15.46zM9.21 56.188c2.086-2.177 2.418-3.07 1.488-4-1.783-1.783-3.192-1.472-5.77 1.273-1.926 2.05-2.105 2.733-1.052 4 1.728 2.083 2.237 1.96 5.335-1.27zm51.687-17.196C65.702 36.54 69.9 29.84 69.9 24.62c0-10.376-10.775-21.542-20.85-21.608-10.368-.068-18.857 10.928-16.162 20.936 2.39 8.878 12.07 17.042 20.208 17.042 2.136 0 5.646-.9 7.8-1.998zm-11.392-4.05c-1.593-.472-4.22-2.116-5.84-3.654-5.704-5.422-7.112-10.792-4.27-16.287C45.42 3.35 64.173 10.08 64.173 23.895c0 7.768-7.263 13.24-14.668 11.048zm6.683-3.037c8.03-3.66 6.36-15.007-2.852-19.378-3.017-1.432-4.084-1.51-6.56-.486-6.648 2.756-7.838 9.646-2.68 15.52 4.53 5.16 7.757 6.32 12.092 4.346z"/></svg>