<svg xmlns="http://www.w3.org/2000/svg" viewBox="0 0 72.900376 73.065239" height="73.065" width="72.9"><path d="M26.348 71.53c-1.02-2.655 1.07-7.864 3.686-9.187 1.356-.687 4.984-1.255 8.062-1.263l5.595-.015 7.568-11.36c9.74-14.625 9.817-16.26 1.245-26.55-4.003-4.807-6.606-7.09-8.08-7.09-1.2 0-2.73-.663-3.402-1.474-.946-1.14-2.61-1.334-7.37-.86-3.383.34-6.344.784-6.582.99-.237.207.95 1.83 2.638 3.61 5.78 6.09 8.468 14.404 5.497 16.997-3.305 2.883-9.165 3.973-19.058 3.544C4.5 38.367 0 36.518 0 32.237c0-3.655 4.538-12.662 7.588-15.06C9.448 15.71 10 14.323 10 11.105c0-9.816 7.663-14.47 13.77-8.36 2.298 2.296 3.395 2.64 7.7 2.41 2.763-.145 6.91-1.125 9.217-2.176 5.948-2.71 9.97-.982 11.836 5.08.946 3.075 12.92 17.035 16.104 18.774 5.3 2.895 5.717 8.217.988 12.596C66.725 42.106 55 59.055 55 60.556c0 .28 1.554.51 3.453.51 1.9 0 4.57.508 5.932 1.13 2.706 1.232 4.998 5.64 4.44 8.54-.325 1.692-1.912 1.85-21.112 2.1-18.14.236-20.836.07-21.365-1.306zM66 69.287c0-.428-.7-1.778-1.557-3-1.492-2.13-2.186-2.223-16.67-2.223-12.662 0-15.412.27-16.944 1.655-4.354 3.94-2.798 4.345 16.67 4.345 10.175 0 18.5-.35 18.5-.777zm-9.098-17.73c6.08-9.48 6.976-11.493 5.117-11.493C61.17 40.065 48 59.37 48 60.61c0 .25.63.455 1.402.455.772 0 4.147-4.278 7.5-9.507zM68.066 37.03c2.338-1.25 2.508-4.248.363-6.393-2.247-2.246-4.138-1.947-6.04.954-1.548 2.366-1.54 2.652.133 4.5 2.04 2.254 2.836 2.39 5.543.94zM29.85 34.967c3.666-1.277 4.13-4.066 1.53-9.2-3.185-6.29-3.976-6.702-12.86-6.702-7.196 0-8.425.27-10.298 2.264C6.12 23.566 3 29.99 3 32.08c0 3.4 19.398 5.485 26.85 2.887zm32.547-7.735c.864-1.398-10.61-14.354-11.725-13.24-.646.648.357 2.58 2.922 5.628 2.148 2.553 4.523 5.497 5.278 6.543 1.47 2.04 2.696 2.41 3.525 1.07zM22.8 10.335c-.273-5.218-.543-5.815-3.02-6.682C15.578 2.183 13 5.06 13 11.22v4.845h10.1l-.3-5.73zm25.63 1.16c2.045-2.047 1.98-3.02-.356-5.355-2.454-2.454-5.89-1.655-6.697 1.558-1.136 4.528 3.71 7.137 7.052 3.796zm-12.012-1.037c3.44-1.32 1.285-2.477-4.09-2.193-7.078.375-8.805 2.8-1.993 2.8 2.476 0 5.213-.273 6.083-.607z"/><path d="M27 69.22c0-5.572 2.217-7.15 10.08-7.174l6.42-.02 7.75-11.77c10.19-15.48 10.292-17.13 1.66-27.134-3.348-3.88-6.848-7.057-7.776-7.057-.93 0-2.702-.71-3.94-1.576-1.776-1.245-3.617-1.432-8.722-.885-3.56.38-6.472.793-6.472.914 0 .12 1.725 2.033 3.833 4.25 3.818 4.012 6.71 11.192 6.01 14.925-.505 2.694-8.917 5.275-17.343 5.32-7.914.044-13.336-1.187-16.493-3.743-2.003-1.622-2.07-2.074-.953-6.508.79-3.134 2.697-6.43 5.573-9.63C10.547 14.777 11 13.76 11 9.325c0-5.22 1.422-7.39 5.7-8.692 2.517-.766 7.758 1.578 8.635 3.863.467 1.22 1.86 1.39 7.37.903 3.738-.33 7.505-1.215 8.374-1.966C44.575.404 52 3.302 52 7.692 52 9.8 65.727 25.985 68.64 27.31c4.718 2.15 5.188 10.707.667 12.168C67.77 39.975 54 59.764 54 61.476c0 .324 2.405.59 5.345.59 6.41 0 8.655 1.9 8.655 7.328v3.67H27V69.22zM66 69c0-.587-.466-1.937-1.035-3-.958-1.79-2.243-1.935-17.3-1.935-16.81 0-18.665.418-18.665 4.2 0 1.67 1.352 1.8 18.5 1.8 12.427 0 18.5-.35 18.5-1.065zm-8.66-17.574c5.212-8.1 6.523-10.827 5.51-11.454-.734-.453-1.618-.505-1.965-.115C59.805 41.067 47 61.13 47 61.61c0 .25.788.453 1.75.45 1.126-.002 4.19-3.794 8.59-10.634zm11.46-14.56c1.658-1.658 1.504-5.304-.287-6.79-3.777-3.135-9.637 2.725-6.502 6.502 1.487 1.79 5.132 1.945 6.79.287zm-41.915-.87c6.855-1.47 7.802-2.843 5.72-8.29-2.828-7.41-5.302-8.95-14.615-9.098-8.813-.14-10.01.5-13.373 7.158-2.638 5.22-2.146 7.98 1.633 9.157 7.554 2.353 13.28 2.65 20.635 1.073zm35.785-9.493c.162-.516-2.358-3.863-5.6-7.438-4.356-4.803-6.193-6.21-7.037-5.394-.85.822.322 2.823 4.558 7.785 5.267 6.168 7.323 7.453 8.08 5.048zM24 11.788c0-5.513-2.216-8.723-6.022-8.723C14.365 3.065 13 5.38 13 11.5v4.565h11v-4.277zm24.99-.21c3.134-3.777-2.726-9.637-6.503-6.502-1.79 1.486-1.945 5.132-.287 6.79 1.658 1.657 5.303 1.503 6.79-.288zm-14.74-.5c3.153-.01 3.75-.35 3.75-2.138 0-1.846-.41-2.043-3.125-1.5-1.72.344-4.42.625-6 .625-2.26 0-2.875.452-2.875 2.117 0 1.707.435 2 2.25 1.514 1.238-.332 3.938-.61 6-.617z"/></svg>