<svg xmlns="http://www.w3.org/2000/svg" viewBox="0 0 30.8542 54.75368" height="54.754" width="30.854"><path d="M15.786.003C10.308-.103 5.22 2.353 2.018 7.01c-3.152 4.58-2.56 10.828 1.416 14.98l2.807 2.927-3.208 3.31c-5.126 5.29-1.006 6.848 4.357 1.65l3.126-3.03 5.602 2.143c6.892 2.637 9.745 5.543 10.426 10.62.706 5.265-3.115 10.023-8.778 10.928-3.664.586-4.885 2.053-3.158 3.79 1.09 1.097 7.06-.067 9.902-1.928 3.68-2.412 6.34-7.48 6.344-12.094.005-5.97-3.33-10.286-10.762-13.93l-6.185-3.033 8.152-8.152c9.14-9.14 9.208-9.82 1.298-13.417C20.848.63 18.276.053 15.786.003zM14.01 4.17c3.853-.105 9.848 1.324 9.848 2.554 0 1.556-14.343 14.836-14.343 14.836-1.745-.797-5.28-4.555-5.478-7.097-.387-4.94 4.47-9.764 8.477-10.15a9.65 9.65 0 0 1 1.496-.144z" fill="#fff"/></svg>