<svg xmlns="http://www.w3.org/2000/svg" viewBox="0 0 42.996 42.996" width="512" height="512"><path d="M34.66 15.314l1.418-1.423-.02-.02.02-.02-1.417-1.41-.013.014L26.29 4.06l.13-.132-1.503-1.423-.087.088-.088-.088-1.417 1.423.093.093L0 27.708v11.33h10.986L34.64 15.292l.02.022zm-24.504 21.71H2.004V28.54l17.92-18.064 8.342 8.378-18.11 18.17zm19.528-19.592L21.34 9.05l3.536-3.565 8.353 8.39-3.546 3.557zm11.49 18.352c-.012.023-1.074 2.274-3.142 2.642-1.692.3-3.69-.686-5.928-2.933-2.49-2.5-5.128-3.696-7.847-3.565-4.156.208-6.883 3.5-6.997 3.64l1.55 1.276c.022-.027 2.3-2.75 5.563-2.906 2.125-.098 4.245.902 6.313 2.98 2.366 2.377 4.628 3.576 6.738 3.575.33 0 .656-.03.978-.088 3.103-.565 4.533-3.652 4.592-3.783l-1.82-.838z" fill="#6C6C6C"/></svg>