<svg xmlns="http://www.w3.org/2000/svg" viewBox="0 0 14.999999 12.765795" height="13.617" width="16"><path d="M0 10.356c0-1.393 1.754-4.013 4.472-6.68 4.403-4.322 4.503-4.36 6.524-2.53L13.05 3 9.827 6.325C6.866 9.38 6.778 9.648 8.745 9.648c1.175 0 2.434.48 2.797 1.068.363.588 1.29.827 2.06.532.77-.296 1.398-.1 1.398.43 0 1.292-3.71 1.247-4.515-.054-.672-1.088-4.93-.865-6.114.32-1.65 1.65-4.37.66-4.37-1.588zM6.48 8.14C8.827 6.224 9.2 5.45 8.235 4.485c-.964-.964-1.86-.613-4.23 1.658-5.02 4.81-2.982 6.457 2.473 2zM10.5 2.65c-.34-.55-1.068-1-1.618-1s-.722.45-.382 1c.34.55 1.068 1 1.618 1s.722-.45.382-1z" fill="#ddd"/></svg>