<svg xmlns="http://www.w3.org/2000/svg" viewBox="0 0 34.060712 33" height="35.2" width="36.331"><path d="M18.27 26.772l-6.228-6.228L6.63 25.89C3.653 28.827.713 31.064.096 30.86c-.617-.206 1.813-3.284 5.4-6.84l6.522-6.463 2.215 2.214 2.215 2.216 3.79-3.702 3.792-3.703 5.52 5.452c3.035 2.998 5.015 5.62 4.398 5.824-.616.206-3.098-1.567-5.515-3.94l-4.394-4.31-3.026 2.897-3.026 2.9 4.727 4.798c2.71 2.753 4.1 4.8 3.255 4.8-.81 0-4.275-2.803-7.7-6.228zM20.59 8.43C17.555 5.395 19.75 0 24.016 0c2.386 0 5 2.614 5 5s-2.614 5-5 5c-1.02 0-2.564-.707-3.428-1.57zm5.47-1.98c1.062-1.28.996-1.84-.38-3.214-1.55-1.553-1.775-1.553-3.327 0-1.374 1.374-1.44 1.933-.377 3.214.707.852 1.626 1.55 2.04 1.55.417 0 1.335-.698 2.043-1.55z"/><path d="M18.27 26.772l-6.228-6.228-5.488 5.42C3.536 28.944.74 31.054.34 30.654c-.402-.4 2.058-3.515 5.465-6.922L12 17.538l2.224 2.224 2.224 2.224 3.802-3.713 3.803-3.714 5.184 5.184c2.852 2.852 4.86 5.51 4.462 5.908-.4.398-2.735-1.25-5.193-3.662l-4.468-4.385-3.024 2.897-3.024 2.896 4.013 4.09C25.908 31.463 26.815 33 25.257 33c-.418 0-3.562-2.803-6.988-6.228zM21.016 8c-1.1-1.1-2-2.45-2-3 0-1.297 3.703-5 5-5 1.297 0 5 3.703 5 5 0 1.297-3.703 5-5 5-.55 0-1.9-.9-3-2zm5.5-3c0-1.833-.6-2.585-2.254-2.82-2.457-.35-3.853 1.795-2.857 4.39.36.942 1.505 1.442 2.857 1.25 1.653-.235 2.254-.987 2.254-2.82z"/></svg>