<svg xmlns="http://www.w3.org/2000/svg" viewBox="0 0 72.307868 72.228856" height="72.229" width="72.308"><path d="M33.823 58.742L27.1 45.254l-13.26-6.626C6.546 34.984.38 31.818.14 31.59c-1.227-1.14 5.248-4.26 36.853-17.747C56.57 5.488 71.783-.467 72.28.03c.495.495-5.466 15.707-13.83 35.285C44.165 68.765 42.545 72.23 41.19 72.23c-.355 0-3.67-6.07-7.367-13.488zM64.668 12.23c1.137-2.68-2.732.706-16.477 14.414L30.23 44.56 35.75 55.57l5.524 11.013 10.954-25.428a15458.176 15458.176 0 0 0 12.44-28.928zm-19.08 11.96C59.35 10.397 62.757 6.504 60.08 7.64c-1.924.817-14.94 6.415-28.926 12.44L5.724 31.032l10.928 5.546c6.01 3.05 10.932 5.57 10.937 5.597.005.03 8.105-8.065 18-17.986z"/></svg>