<svg xmlns="http://www.w3.org/2000/svg" width="31.47" height="31.47" viewBox="0 0 31.47 31.47"><path d="M28.31 8.465h-8.165v-2.03h8.166v2.03zM15.83 16.78c.525.818.79 1.81.79 2.972 0 1.205-.298 2.283-.902 3.236a5.593 5.593 0 0 1-1.435 1.592c-.646.496-1.41.838-2.288 1.02-.882.184-1.835.273-2.862.273H0V5.597h9.792c2.468.04 4.218.754 5.25 2.16.62.86.928 1.894.928 3.095 0 1.24-.312 2.232-.937 2.985-.348.423-.862.808-1.544 1.154 1.032.38 1.815.973 2.34 1.79zM4.675 13.59h4.29c.883 0 1.596-.168 2.144-.502.55-.335.823-.93.823-1.784 0-.942-.362-1.568-1.09-1.87-.624-.21-1.423-.317-2.392-.317H4.677v4.474zm7.67 5.872c0-1.053-.43-1.78-1.29-2.172-.48-.22-1.158-.336-2.027-.344H4.675v5.403H8.96c.88 0 1.562-.115 2.054-.357.887-.44 1.332-1.28 1.332-2.53zm18.994-3.298c.1.664.145 1.626.125 2.884H20.89c.06 1.46.563 2.48 1.52 3.064.575.366 1.274.545 2.093.545.863 0 1.566-.218 2.107-.666.295-.237.555-.573.78-.995h3.876c-.103.86-.568 1.734-1.408 2.625-1.3 1.41-3.12 2.12-5.46 2.12-1.936 0-3.64-.6-5.118-1.788-1.475-1.192-2.215-3.13-2.215-5.817 0-2.52.666-4.45 2-5.79C20.403 11 22.13 10.33 24.26 10.33c1.262 0 2.4.226 3.416.68 1.012.454 1.848 1.168 2.506 2.15.595.865.98 1.865 1.158 3.004zm-3.817.38c-.07-1.01-.407-1.774-1.015-2.296-.603-.525-1.354-.787-2.25-.787-.978 0-1.73.28-2.267.833-.538.553-.873 1.3-1.01 2.25h6.543z"/></svg>